<?xml version="1.0" encoding="UTF-8" standalone="no"?>
<svg
   viewBox="0 0 350 365"
   version="1.1"
   id="svg36"
   sodipodi:docname="partly-rain.svg"
   width="350"
   height="365"
   inkscape:version="1.3.2 (091e20e, 2023-11-25, custom)"
   xmlns:inkscape="http://www.inkscape.org/namespaces/inkscape"
   xmlns:sodipodi="http://sodipodi.sourceforge.net/DTD/sodipodi-0.dtd"
   xmlns="http://www.w3.org/2000/svg"
   xmlns:svg="http://www.w3.org/2000/svg">
  <sodipodi:namedview
     id="namedview36"
     pagecolor="#ffffff"
     bordercolor="#000000"
     borderopacity="0.25"
     inkscape:showpageshadow="2"
     inkscape:pageopacity="0.0"
     inkscape:pagecheckerboard="0"
     inkscape:deskcolor="#d1d1d1"
     inkscape:zoom="1.626"
     inkscape:cx="250"
     inkscape:cy="200.79951"
     inkscape:window-width="1920"
     inkscape:window-height="1009"
     inkscape:window-x="-8"
     inkscape:window-y="-8"
     inkscape:window-maximized="1"
     inkscape:current-layer="svg36" />
  <defs
     id="defs1">
    <style
       id="style1">.cls-1{fill:#dcdddd;}.cls-2{fill:#231815;}.cls-3{fill:#2ea7e0;}.cls-4{fill:#f8b62d;}</style>
  </defs>
  <title
     id="title1" />
  <g
     data-name="图层 1"
     id="图层_1"
     transform="translate(-74.415744,-66.420664)">
    <path
       class="cls-1"
       d="m 369.54,290.92 c 22.53,4.88 38.5,25.74 35.61,49 -2.75,22.09 -22,38.41 -44,38.7 -4.78,0.06 -7.2,3.78 -7.24,7.5 H 227.78 c 0,-3.72 -2.44,-7.45 -7.24,-7.5 -24.5,-0.27 -46.36,-16.6 -52.84,-40.4 a 54.66,54.66 0 0 1 3,-36.61 55.56,55.56 0 0 1 8.47,-13.42 54.11,54.11 0 0 1 14.15,-11.79 c 13.58,-7.83 29.54,-9.08 44.43,-4.49 3.34,1 6.63,-0.74 8.47,-3.45 14.64,-21.53 41.42,-33.13 67.15,-28.1 a 66.85,66.85 0 0 1 13.82,4.31 c 0.87,0.38 1.73,0.77 2.57,1.18 0.84,0.41 1.94,1 2.89,1.49 a 67.07,67.07 0 0 1 31.67,38.31 7.54,7.54 0 0 0 5.22,5.27 z m -43,91.5 c 3.61,-1 6.7,-5.42 5.24,-9.22 L 324.37,354 c -1.45,-3.78 -5,-6.39 -9.22,-5.24 -3.62,1 -6.7,5.42 -5.24,9.22 l 7.37,19.2 c 1.45,3.82 5.05,6.39 9.23,5.24 z m -38,0 c 3.61,-1 6.7,-5.42 5.24,-9.22 L 286.41,354 c -1.45,-3.78 -5,-6.39 -9.22,-5.24 -3.62,1 -6.7,5.42 -5.24,9.22 l 7.37,19.2 c 1.45,3.82 5.05,6.39 9.23,5.24 z m -38,0 c 3.61,-1 6.69,-5.42 5.23,-9.22 Q 252.1,363.6 248.4,354 c -1.45,-3.78 -5,-6.39 -9.23,-5.24 -3.61,1 -6.69,5.42 -5.23,9.22 q 3.67,9.6 7.37,19.2 c 1.5,3.82 5.1,6.39 9.28,5.24 z"
       id="path1" />
    <path
       class="cls-2"
       d="m 404.07,232.93 c 9.67,0 9.65,15 0,15 h -33.65 c -9.67,0 -9.65,-15 0,-15 z"
       id="path2" />
    <path
       class="cls-2"
       d="m 342.21,244.32 a 73.77,73.77 0 0 1 29.32,39.37 51.75,51.75 0 0 1 -10.34,102.46 H 354 c 0,-3.72 2.46,-7.44 7.24,-7.5 22,-0.29 41.21,-16.61 44,-38.7 2.89,-23.29 -13.08,-44.15 -35.61,-49 a 7.54,7.54 0 0 1 -5.24,-5.24 66.86,66.86 0 0 0 -22.91,-32.59 q 0.52,-4.38 0.73,-8.8 z"
       id="path3" />
    <path
       class="cls-2"
       d="m 379.05,154.7 c 8.38,-4.84 15.93,8.13 7.57,13 l -29.14,16.83 c -8.39,4.84 -15.93,-8.13 -7.57,-12.95 z"
       id="path4" />
    <path
       class="cls-2"
       d="m 377.25,277.41 c 27.43,7.88 46.27,35.14 42.73,63.9 a 59.9,59.9 0 0 1 -58.79,52.34 c -4.88,0.06 -7.29,-3.72 -7.24,-7.5 h 7.24 a 51.75,51.75 0 0 0 10.34,-102.46 73.77,73.77 0 0 0 -29.32,-39.37 c 0.06,-1.1 0.1,-2.21 0.11,-3.32 v -0.08 c 0,-0.14 0,-0.28 0,-0.42 v -0.07 c 0,-0.17 0,-0.34 0,-0.51 0,-1.5 -0.09,-3 -0.17,-4.47 a 83.68,83.68 0 0 1 35.1,42 c -1.23,-0.36 -2.46,-0.68 -3.73,-1 l 5.24,5.24 c -0.46,-1.44 -0.97,-2.87 -1.51,-4.28 z"
       id="path5" />
    <path
       class="cls-2"
       d="m 377.25,277.41 c 0.54,1.41 1,2.84 1.51,4.28 l -5.24,-5.24 c 1.27,0.28 2.48,0.6 3.73,0.96 z"
       id="path6" />
    <path
       class="cls-3"
       d="m 348.21,416.08 c 1.46,3.8 -1.62,8.23 -5.23,9.22 -4.18,1.15 -7.78,-1.45 -9.23,-5.23 q -3.69,-9.6 -7.37,-19.21 c -1.46,-3.8 1.62,-8.23 5.23,-9.22 4.18,-1.15 7.78,1.46 9.23,5.24 q 3.69,9.6 7.37,19.2 z"
       id="path7" />
    <path
       class="cls-2"
       d="m 342.32,240.92 c 0,-0.14 0,-0.28 0,-0.42 0.01,0.14 0.01,0.28 0,0.42 z"
       id="path8" />
    <path
       class="cls-2"
       d="m 341.56,243.89 a 7.37,7.37 0 0 0 0.76,-2.89 c 0,1.11 -0.05,2.22 -0.11,3.32 -0.21,-0.15 -0.43,-0.32 -0.65,-0.43 z"
       id="path9" />
    <path
       class="cls-2"
       d="m 341.56,243.89 c -1.63,3.23 -5.6,4.39 -8.93,3.48 -1,-0.52 -1.91,-1 -2.89,-1.49 a 6.93,6.93 0 0 1 -2.41,-5.45 7.45,7.45 0 0 1 0.84,-3.5 72.34,72.34 0 0 1 13.39,6.96 z"
       id="path10" />
    <path
       class="cls-2"
       d="m 328.17,236.93 c 3.1,-5.84 13.76,-4.84 14.15,3 0,0.17 0,0.34 0,0.51 v 0.07 c 0,0.14 0,0.28 0,0.42 V 241 a 7.37,7.37 0 0 1 -0.76,2.89 72.34,72.34 0 0 0 -13.39,-6.96 z"
       id="path11" />
    <path
       class="cls-2"
       d="m 332.63,247.37 c 3.33,0.91 7.3,-0.25 8.93,-3.48 0.22,0.14 0.44,0.28 0.65,0.43 q -0.21,4.43 -0.82,8.77 a 66.89,66.89 0 0 0 -8.76,-5.72 z"
       id="path12" />
    <path
       class="cls-3"
       d="m 331.75,373.2 c 1.46,3.8 -1.63,8.23 -5.24,9.22 -4.18,1.15 -7.78,-1.46 -9.23,-5.24 L 309.91,358 c -1.46,-3.8 1.62,-8.23 5.24,-9.22 4.18,-1.15 7.77,1.46 9.22,5.24 z"
       id="path13" />
    <path
       class="cls-2"
       d="m 318.34,99.37 c 4.83,-8.37 17.79,-0.8 12.95,7.57 l -16.82,29.15 c -4.83,8.36 -17.79,0.8 -13,-7.57 z"
       id="path14" />
    <path
       class="cls-2"
       d="m 327.2,236.54 a 81.22,81.22 0 0 0 -0.89,-8.28 78.37,78.37 0 0 1 15.84,7.19 c 0.08,1.48 0.15,3 0.17,4.47 -0.39,-7.83 -11.05,-8.83 -14.15,-3 z"
       id="path15" />
    <path
       class="cls-2"
       d="m 328.17,236.93 a 7.45,7.45 0 0 0 -0.84,3.5 c 0,-1.3 -0.06,-2.6 -0.13,-3.89 z"
       id="path16" />
    <path
       class="cls-2"
       d="m 327.33,240.43 a 6.93,6.93 0 0 0 2.41,5.45 c -0.84,-0.41 -1.7,-0.8 -2.57,-1.18 0.09,-1.42 0.15,-2.84 0.16,-4.27 z"
       id="path17" />
    <path
       class="cls-2"
       d="m 220.54,261.68 a 62.17,62.17 0 0 1 12.29,1.22 v 0 a 60.56,60.56 0 0 1 6.89,1.8 73.78,73.78 0 0 1 87.48,-28.17 c 0.07,1.29 0.12,2.59 0.13,3.89 0.01,1.3 -0.07,2.85 -0.16,4.27 a 66.85,66.85 0 0 0 -13.82,-4.31 c -25.73,-5 -52.51,6.57 -67.15,28.1 -1.84,2.71 -5.13,4.48 -8.47,3.45 -14.89,-4.59 -30.85,-3.34 -44.43,4.49 a 54.11,54.11 0 0 0 -14.15,11.79 72.94,72.94 0 0 1 -4.29,-6.55 62,62 0 0 1 45.68,-19.98 z"
       id="path18" />
    <path
       class="cls-2"
       d="m 301.11,231.79 a 73.63,73.63 0 0 0 -61.39,32.92 60.56,60.56 0 0 0 -6.89,-1.8 v 0 l 0.42,-2 8.47,-3.44 c -1.65,-0.51 -3.31,-0.94 -5,-1.33 a 82.28,82.28 0 0 1 79.28,-30.47 76.17,76.17 0 0 1 10.36,2.59 81.22,81.22 0 0 1 0.89,8.28 73.53,73.53 0 0 0 -26.14,-4.75 z"
       id="path19" />
    <path
       class="cls-3"
       d="m 310.25,416.08 c 1.46,3.8 -1.62,8.23 -5.23,9.22 -4.18,1.15 -7.78,-1.45 -9.23,-5.23 l -7.38,-19.21 c -1.46,-3.8 1.63,-8.23 5.24,-9.22 4.18,-1.15 7.78,1.46 9.23,5.24 q 3.69,9.6 7.37,19.2 z"
       id="path20" />
    <path
       class="cls-4"
       d="m 261.39,160.18 a 82.63,82.63 0 0 1 64.92,68.08 76.17,76.17 0 0 0 -10.31,-2.59 82.28,82.28 0 0 0 -79.21,30.48 71.08,71.08 0 0 0 -65.5,18.51 83.06,83.06 0 0 1 4.34,-76.66 c 17.54,-28.92 52.48,-44.57 85.76,-37.82 z"
       id="path21" />
    <path
       class="cls-3"
       d="m 293.79,373.2 c 1.46,3.8 -1.63,8.23 -5.24,9.22 -4.18,1.15 -7.78,-1.46 -9.23,-5.24 L 272,358 c -1.46,-3.8 1.62,-8.23 5.24,-9.22 4.18,-1.15 7.77,1.46 9.22,5.24 z"
       id="path22" />
    <path
       class="cls-3"
       d="m 272.29,416.08 c 1.46,3.8 -1.62,8.23 -5.24,9.22 -4.18,1.15 -7.77,-1.45 -9.22,-5.23 l -7.38,-19.2 c -1.46,-3.81 1.63,-8.24 5.24,-9.23 4.18,-1.15 7.78,1.46 9.23,5.24 z"
       id="path23" />
    <path
       class="cls-3"
       d="m 255.82,373.2 c 1.46,3.8 -1.62,8.23 -5.23,9.22 -4.18,1.15 -7.78,-1.46 -9.23,-5.24 q -3.69,-9.6 -7.37,-19.2 c -1.46,-3.8 1.62,-8.23 5.23,-9.22 4.18,-1.15 7.78,1.46 9.23,5.24 q 3.69,9.6 7.37,19.2 z"
       id="path24" />
    <path
       class="cls-2"
       d="m 253.06,81.92 v 33.65 c 0,9.67 -15,9.66 -15,0 V 81.92 c 0,-9.67 15,-9.65 15,0 z"
       id="path25" />
    <path
       class="cls-2"
       d="m 241.72,257.48 -8.47,3.44 c 1.11,-1.64 2.28,-3.23 3.49,-4.77 1.67,0.39 3.33,0.85 4.98,1.33 z"
       id="path26" />
    <path
       class="cls-2"
       d="m 171.24,274.66 a 71.08,71.08 0 0 1 65.5,-18.51 c -1.21,1.54 -2.38,3.13 -3.49,4.77 l -0.42,2 a 62.25,62.25 0 0 0 -58,18.77 78.73,78.73 0 0 1 -3.59,-7.03 z"
       id="path27" />
    <path
       class="cls-2"
       d="m 189.61,128.52 c 4.84,8.38 -8.13,15.92 -13,7.57 L 159.78,106.94 C 155,98.56 168,91 172.78,99.37 Z"
       id="path28" />
    <path
       class="cls-2"
       d="m 158.31,323.92 a 62.23,62.23 0 0 0 62.23,62.23 h 7.24 c 0,3.78 -2.38,7.55 -7.24,7.5 A 70.94,70.94 0 0 1 173.12,375 c -23.28,-21.41 -28.82,-57.13 -13.66,-84.78 0.5,-0.92 1,-1.82 1.57,-2.71 0.53,1 1.08,1.91 1.65,2.86 0.91,1.5 1.87,3 2.86,4.4 a 61.93,61.93 0 0 0 -7.23,29.15 z"
       id="path29" />
    <path
       class="cls-2"
       d="m 174.86,281.67 a 72.94,72.94 0 0 0 4.29,6.55 55.56,55.56 0 0 0 -8.47,13.42 q -2.72,-3.28 -5.14,-6.84 a 62,62 0 0 1 9.32,-13.13 z"
       id="path30" />
    <path
       class="cls-2"
       d="m 342.15,235.45 a 78.37,78.37 0 0 0 -15.84,-7.19 82.63,82.63 0 0 0 -64.92,-68.08 c -33.28,-6.75 -68.22,8.9 -85.76,37.85 a 83.06,83.06 0 0 0 -4.39,76.63 67.8,67.8 0 0 0 -10.24,12.88 c -19.27,-34.5 -15,-78.17 10,-108.75 25.37,-31 69.58,-43.25 107.27,-29.43 a 98,98 0 0 1 63.88,86.09 z"
       id="path31" />
    <path
       class="cls-2"
       d="m 174.86,281.67 a 62,62 0 0 0 -9.32,13.13 c -1,-1.44 -1.95,-2.9 -2.86,-4.4 -0.57,-0.95 -1.12,-1.9 -1.65,-2.86 a 67.8,67.8 0 0 1 10.21,-12.88 78.73,78.73 0 0 0 3.62,7.01 z"
       id="path32" />
    <path
       class="cls-2"
       d="m 220.54,378.65 c 4.8,0.05 7.21,3.78 7.24,7.5 h -7.24 a 62.24,62.24 0 0 1 -55,-91.35 q 2.43,3.56 5.14,6.84 a 54.66,54.66 0 0 0 -3,36.61 c 6.5,23.8 28.32,40.13 52.86,40.4 z"
       id="path33" />
    <path
       class="cls-2"
       d="m 141.22,171.53 c 8.37,4.83 0.8,17.78 -7.57,12.95 L 104.5,167.65 c -8.36,-4.83 -0.8,-17.79 7.57,-13 z"
       id="path34" />
    <path
       class="cls-2"
       d="m 133.65,296.38 c 8.38,-4.84 15.93,8.13 7.57,12.95 l -29.15,16.83 c -8.38,4.84 -15.92,-8.13 -7.57,-13 z"
       id="path35" />
    <path
       class="cls-2"
       d="m 120.71,232.93 c 9.66,0 9.65,15 0,15 H 87.05 c -9.67,0 -9.65,-15 0,-15 z"
       id="path36" />
  </g>
</svg>
