<?xml version="1.0" encoding="UTF-8" standalone="no"?>
<svg
   viewBox="0 0 355 410"
   version="1.1"
   id="svg72"
   sodipodi:docname="partly-thunder.svg"
   width="355"
   height="410"
   inkscape:version="1.3.2 (091e20e, 2023-11-25, custom)"
   xmlns:inkscape="http://www.inkscape.org/namespaces/inkscape"
   xmlns:sodipodi="http://sodipodi.sourceforge.net/DTD/sodipodi-0.dtd"
   xmlns="http://www.w3.org/2000/svg"
   xmlns:svg="http://www.w3.org/2000/svg">
  <sodipodi:namedview
     id="namedview72"
     pagecolor="#ffffff"
     bordercolor="#000000"
     borderopacity="0.25"
     inkscape:showpageshadow="2"
     inkscape:pageopacity="0.0"
     inkscape:pagecheckerboard="0"
     inkscape:deskcolor="#d1d1d1"
     inkscape:zoom="1.626"
     inkscape:cx="250"
     inkscape:cy="200.79951"
     inkscape:window-width="1920"
     inkscape:window-height="1009"
     inkscape:window-x="-8"
     inkscape:window-y="-8"
     inkscape:window-maximized="1"
     inkscape:current-layer="svg72" />
  <defs
     id="defs1">
    <style
       id="style1">.cls-1{fill:#dcdddd;}.cls-2{fill:#231815;}.cls-3{fill:#f8b62d;}.cls-4{fill:#faee00;}.cls-5{fill:none;stroke:#231815;stroke-miterlimit:10;}</style>
  </defs>
  <title
     id="title1" />
  <g
     data-name="图层 1"
     id="图层_1"
     transform="translate(-71.340714,-44.895449)">
    <path
       class="cls-1"
       d="m 332.64,226.52 a 67.93,67.93 0 0 1 8.76,5.72 66.91,66.91 0 0 1 22.91,32.59 7.52,7.52 0 0 0 5.24,5.24 c 22.53,4.89 38.5,25.75 35.6,49 -2.74,22.09 -22,38.41 -43.95,38.7 -4.78,0.07 -7.2,3.78 -7.24,7.5 h -25.29 l 4.78,-4.82 11.94,-12 c 4.57,-4.6 1.21,-12.8 -5.31,-12.8 h -18 l 12.06,-18 c 3.23,-4.82 -1.06,-11.29 -6.48,-11.29 -12.94,0 -25.94,-0.38 -38.9,-0.16 -2.27,0 -4.55,0.08 -6.82,0.16 -4.63,0.16 -7.06,2.82 -9.07,6.11 -1,1.58 -1.86,3.31 -2.84,5 l -14.89,25.41 -10.81,18.45 a 7.2,7.2 0 0 0 -1,4 h -15.54 c 0,-3.72 -2.44,-7.44 -7.24,-7.5 -24.5,-0.27 -46.36,-16.6 -52.84,-40.4 a 54.66,54.66 0 0 1 3,-36.61 55.56,55.56 0 0 1 8.47,-13.42 54.19,54.19 0 0 1 14.14,-11.78 c 13.59,-7.83 29.55,-9.09 44.44,-4.5 3.34,1 6.62,-0.73 8.47,-3.44 14.64,-21.54 41.42,-33.14 67.15,-28.1 a 67.43,67.43 0 0 1 13.82,4.3 c 0.87,0.38 1.73,0.77 2.57,1.19 0.84,0.42 1.92,0.93 2.87,1.45 z"
       id="path1" />
    <path
       class="cls-2"
       d="m 236.75,235.31 a 82.25,82.25 0 0 1 79.25,-30.49 77.68,77.68 0 0 1 10.36,2.59 81.11,81.11 0 0 1 0.89,8.29 73.74,73.74 0 0 0 -83.52,22.76 l -2,-1.83 c -1.65,-0.51 -3.32,-0.94 -4.98,-1.32 z"
       id="path2" />
    <path
       class="cls-2"
       d="M 379.06,133.85 C 387.44,129 395,142 386.63,146.8 l -29.14,16.83 c -8.39,4.84 -15.93,-8.13 -7.58,-13 z"
       id="path3" />
    <path
       class="cls-2"
       d="m 179.16,267.37 a 55.56,55.56 0 0 0 -8.47,13.42 q -2.72,-3.29 -5.14,-6.84 a 62.33,62.33 0 0 1 9.31,-13.13 75.29,75.29 0 0 0 4.3,6.55 z"
       id="path4" />
    <path
       class="cls-2"
       d="m 141.23,150.68 c 8.37,4.83 0.8,17.79 -7.57,13 L 104.51,146.8 c -8.36,-4.83 -0.8,-17.78 7.57,-12.95 z"
       id="path5" />
    <path
       class="cls-2"
       d="m 341.57,223 a 7.37,7.37 0 0 0 0.76,-2.89 c 0,1.11 -0.06,2.22 -0.11,3.32 z"
       id="path6" />
    <path
       class="cls-2"
       d="m 404.08,212.08 c 9.67,0 9.65,15 0,15 h -33.65 c -9.67,0 -9.65,-15 0,-15 z"
       id="path7" />
    <path
       class="cls-2"
       d="m 120.72,212.08 c 9.66,0 9.65,15 0,15 H 87.06 c -9.67,0 -9.65,-15 0,-15 z"
       id="path8" />
    <path
       class="cls-2"
       d="m 341.4,232.24 c 0.41,-2.89 0.68,-5.82 0.82,-8.77 A 73.9,73.9 0 0 1 371.54,262.84 51.75,51.75 0 0 1 361.2,365.3 H 354 c 0,-3.72 2.46,-7.43 7.24,-7.5 22,-0.29 41.21,-16.61 43.95,-38.7 2.9,-23.28 -13.07,-44.14 -35.6,-49 a 7.52,7.52 0 0 1 -5.24,-5.24 66.91,66.91 0 0 0 -22.95,-32.62 z"
       id="path9" />
    <path
       class="cls-2"
       d="m 328.18,216.08 c 3.1,-5.82 13.72,-4.84 14.15,2.94 0,0.18 0,0.37 0,0.56 v 0.07 c 0,0.14 0,0.28 0,0.42 v 0.08 a 7.37,7.37 0 0 1 -0.76,2.89 73,73 0 0 0 -13.39,-6.96 z"
       id="path10" />
    <path
       class="cls-2"
       d="m 327.21,215.7 1,0.38 a 7.48,7.48 0 0 0 -0.84,3.5 c -0.04,-1.3 -0.09,-2.58 -0.16,-3.88 z"
       id="path11" />
    <path
       class="cls-2"
       d="m 342.33,220.07 c 0,-0.14 0,-0.28 0,-0.42 0.01,0.14 0.01,0.28 0,0.42 z"
       id="path12" />
    <path
       class="cls-2"
       d="m 189.62,107.67 c 4.84,8.38 -8.13,15.93 -13,7.57 L 159.84,86.09 C 155,77.71 168,70.17 172.79,78.52 Z"
       id="path13" />
    <path
       class="cls-2"
       d="m 342.33,219 c -0.43,-7.78 -11.05,-8.76 -14.15,-2.94 l -1,-0.38 a 81.11,81.11 0 0 0 -0.89,-8.29 78.41,78.41 0 0 1 15.84,7.2 c 0.11,1.48 0.17,2.96 0.2,4.41 z"
       id="path14" />
    <path
       class="cls-2"
       d="m 278.3,128.52 a 97.94,97.94 0 0 1 63.86,86.09 78.41,78.41 0 0 0 -15.84,-7.2 82.66,82.66 0 0 0 -64.92,-68.08 c -33.28,-6.75 -68.22,8.91 -85.76,37.86 a 83,83 0 0 0 -4.39,76.62 68.43,68.43 0 0 0 -10.25,12.88 c -19.27,-34.49 -15,-78.16 10,-108.75 25.4,-31.05 69.61,-43.24 107.3,-29.42 z"
       id="path15" />
    <path
       class="cls-2"
       d="m 412.95,313.55 a 51.77,51.77 0 0 0 -41.41,-50.71 73.9,73.9 0 0 0 -29.32,-39.37 c 0.05,-1.1 0.1,-2.21 0.11,-3.32 v -0.08 c 0,-0.14 0,-0.28 0,-0.42 v -0.07 c 0,-0.19 0,-0.38 0,-0.56 0,-1.47 -0.09,-2.95 -0.17,-4.41 a 83.62,83.62 0 0 1 35.1,42 c -1.23,-0.35 -2.47,-0.68 -3.73,-1 l 5.24,5.24 c -0.46,-1.45 -1,-2.88 -1.51,-4.29 27.43,7.88 46.27,35.15 42.73,63.9 A 59.9,59.9 0 0 1 361.2,372.8 c -4.88,0.07 -7.29,-3.71 -7.24,-7.5 h 7.24 a 51.75,51.75 0 0 0 51.75,-51.75 z"
       id="path16" />
    <path
       class="cls-3"
       d="m 261.4,139.33 a 82.66,82.66 0 0 1 64.92,68.08 77.68,77.68 0 0 0 -10.32,-2.59 82.25,82.25 0 0 0 -79.21,30.49 71.07,71.07 0 0 0 -65.5,18.5 83,83 0 0 1 4.39,-76.62 c 17.5,-28.95 52.44,-44.61 85.72,-37.86 z"
       id="path17" />
    <path
       class="cls-2"
       d="m 377.26,256.56 c 0.54,1.41 1,2.84 1.51,4.29 l -5.24,-5.24 c 1.26,0.27 2.47,0.6 3.73,0.95 z"
       id="path18" />
    <path
       class="cls-2"
       d="m 328.18,216.08 a 73,73 0 0 1 13.39,7 c -1.63,3.23 -5.6,4.39 -8.93,3.48 -1,-0.52 -1.91,-1 -2.89,-1.48 a 7,7 0 0 1 -2.41,-5.46 7.48,7.48 0 0 1 0.84,-3.54 z"
       id="path19" />
    <path
       class="cls-2"
       d="m 332.64,226.52 c 3.33,0.91 7.3,-0.25 8.93,-3.48 l 0.65,0.43 c -0.14,2.95 -0.41,5.88 -0.82,8.77 a 67.93,67.93 0 0 0 -8.76,-5.72 z"
       id="path20" />
    <path
       class="cls-2"
       d="m 327.34,219.58 a 7,7 0 0 0 2.41,5.46 c -0.84,-0.42 -1.7,-0.81 -2.57,-1.19 0.08,-1.42 0.15,-2.85 0.16,-4.27 z"
       id="path21" />
    <path
       class="cls-2"
       d="m 236.75,235.31 c 1.66,0.38 3.33,0.81 5,1.32 l -8.47,3.45 c 1.09,-1.64 2.26,-3.23 3.47,-4.77 z"
       id="path22" />
    <path
       class="cls-2"
       d="m 171.25,253.81 a 71.07,71.07 0 0 1 65.5,-18.5 c -1.21,1.54 -2.38,3.13 -3.49,4.77 l -0.42,2 a 62.27,62.27 0 0 0 -58,18.77 q -1.96,-3.45 -3.59,-7.04 z"
       id="path23" />
    <path
       class="cls-2"
       d="m 318.35,78.52 c 4.83,-8.36 17.79,-0.8 12.95,7.57 l -16.82,29.15 c -4.83,8.37 -17.79,0.8 -13,-7.57 z"
       id="path24" />
    <path
       class="cls-2"
       d="m 162.69,269.55 c 0.91,1.5 1.87,3 2.86,4.4 a 62.24,62.24 0 0 0 55,91.35 h 7.24 c 0,3.78 -2.38,7.56 -7.24,7.5 a 70.88,70.88 0 0 1 -47.42,-18.61 c -23.29,-21.42 -28.82,-57.14 -13.66,-84.79 0.5,-0.92 1,-1.82 1.57,-2.71 0.53,0.96 1.08,1.92 1.65,2.86 z"
       id="path25" />
    <path
       class="cls-2"
       d="m 165.55,273.95 q 2.43,3.56 5.14,6.84 a 54.66,54.66 0 0 0 -3,36.61 c 6.48,23.8 28.34,40.13 52.84,40.4 4.8,0.06 7.21,3.78 7.24,7.5 h -7.24 a 62.24,62.24 0 0 1 -55,-91.35 z"
       id="path26" />
    <path
       class="cls-2"
       d="m 193.3,255.59 a 54.19,54.19 0 0 0 -14.14,11.78 75.29,75.29 0 0 1 -4.3,-6.55 62.27,62.27 0 0 1 58,-18.77 v 0 a 60.56,60.56 0 0 1 6.89,1.8 q 1.86,-2.79 4,-5.4 a 73.74,73.74 0 0 1 83.52,-22.76 c 0.07,1.29 0.12,2.58 0.13,3.88 0.01,1.3 -0.08,2.85 -0.16,4.27 a 67.43,67.43 0 0 0 -13.82,-4.3 c -25.73,-5 -52.51,6.56 -67.15,28.1 -1.85,2.71 -5.13,4.47 -8.47,3.44 -14.95,-4.58 -30.91,-3.32 -44.5,4.51 z"
       id="path27" />
    <path
       class="cls-2"
       d="m 253.07,61.07 v 33.66 c 0,9.67 -15,9.65 -15,0 V 61.07 c 0,-9.66 15,-9.65 15,0 z"
       id="path28" />
    <path
       class="cls-2"
       d="m 133.66,275.54 c 8.38,-4.85 15.93,8.12 7.57,13 l -29.15,16.82 c -8.38,4.84 -15.92,-8.12 -7.57,-12.95 z"
       id="path29" />
    <path
       class="cls-2"
       d="m 171.25,253.81 q 1.64,3.58 3.61,7 a 62.33,62.33 0 0 0 -9.31,13.13 c -1,-1.44 -1.95,-2.9 -2.86,-4.4 -0.57,-0.94 -1.12,-1.9 -1.65,-2.86 a 68.43,68.43 0 0 1 10.21,-12.87 z"
       id="path30" />
    <path
       class="cls-2"
       d="m 241.73,236.63 2,1.83 q -2.1,2.61 -4,5.4 a 60.56,60.56 0 0 0 -6.89,-1.8 v 0 l 0.42,-2 z"
       id="path31" />
    <path
       class="cls-4"
       d="m 307.54,365.3 -35.48,35.77 15.86,-32.19 a 8.36,8.36 0 0 0 0.85,-3.58 z"
       id="path32" />
    <path
       class="cls-2"
       d="m 328.67,365.3 -77.54,78.18 a 6.17,6.17 0 0 1 -6.86,2.89 c -4.79,-0.8 -8.68,-6.63 -5.58,-11.4 L 269.41,372.6 H 250.8 a 7.58,7.58 0 0 1 -7.46,-7.3 h 45.43 a 8.36,8.36 0 0 1 -0.85,3.58 l -15.86,32.19 35.48,-35.77 z"
       id="path33" />
    <path
       class="cls-4"
       d="m 322.08,350.64 q -7.26,7.33 -14.54,14.66 h -18.77 a 7.3,7.3 0 0 0 -7.33,-7.7 h -17.55 l 21.24,-36.25 h 28.5 l -12.07,18 c -3.22,4.82 1.06,11.29 6.48,11.29 z"
       id="path34" />
    <path
       class="cls-2"
       d="m 340.08,335.64 c 6.52,0 9.88,8.2 5.31,12.8 l -11.94,12 -4.78,4.82 h -21.13 q 7.28,-7.34 14.54,-14.66 H 308 c -5.42,0 -9.7,-6.47 -6.48,-11.29 l 12.07,-18 h -28.5 l -21.2,36.29 h 17.55 a 7.3,7.3 0 0 1 7.33,7.7 h -45.43 a 7.2,7.2 0 0 1 1,-4 l 10.81,-18.45 14.85,-25.4 c 1,-1.68 1.86,-3.41 2.84,-5 2,-3.29 4.44,-5.95 9.07,-6.11 2.27,-0.08 4.55,-0.13 6.82,-0.16 13,-0.22 26,0.16 38.9,0.16 5.42,0 9.71,6.47 6.48,11.29 l -12.06,18 z"
       id="path35" />
    <path
       class="cls-5"
       d="M 342.16,214.61 A 97.94,97.94 0 0 0 278.3,128.52 c -37.69,-13.82 -81.9,-1.63 -107.27,29.42 -25,30.59 -29.26,74.26 -10,108.75"
       id="path36" />
    <path
       class="cls-5"
       d="m 171.25,253.81 a 83,83 0 0 1 4.39,-76.62 c 17.54,-29 52.48,-44.61 85.76,-37.86 a 82.66,82.66 0 0 1 64.92,68.08"
       id="path37" />
    <path
       class="cls-5"
       d="M 253.07,94.73 V 61.07 c 0,-9.65 -15,-9.66 -15,0 v 33.66 c 0,9.65 15,9.67 15,0 z"
       id="path38" />
    <line
       class="cls-5"
       x1="245.57001"
       x2="245.57001"
       y1="61.07"
       y2="94.730003"
       id="line38" />
    <path
       class="cls-5"
       d="m 176.67,115.24 c 4.82,8.36 17.79,0.81 13,-7.57 L 172.79,78.52 C 167.97,70.17 155,77.71 159.84,86.09 Z"
       id="path39" />
    <line
       class="cls-5"
       x1="183.14"
       x2="166.32001"
       y1="111.45"
       y2="82.309998"
       id="line39" />
    <path
       class="cls-5"
       d="m 104.51,146.8 29.15,16.83 c 8.37,4.84 15.94,-8.12 7.57,-13 L 112.08,133.8 c -8.37,-4.8 -15.93,8.2 -7.57,13 z"
       id="path40" />
    <line
       class="cls-5"
       x1="108.3"
       x2="137.44"
       y1="140.33"
       y2="157.14999"
       id="line40" />
    <path
       class="cls-5"
       d="m 120.72,227.08 c 9.65,0 9.66,-15 0,-15 H 87.06 c -9.65,0 -9.67,15 0,15 z"
       id="path41" />
    <line
       class="cls-5"
       x1="87.059998"
       x2="120.72"
       y1="219.58"
       y2="219.58"
       id="line41" />
    <path
       class="cls-5"
       d="m 112.08,305.31 29.15,-16.82 c 8.36,-4.83 0.81,-17.8 -7.57,-13 l -29.15,16.82 c -8.35,4.88 -0.81,17.84 7.57,13 z"
       id="path42" />
    <line
       class="cls-5"
       x1="108.3"
       x2="137.44"
       y1="298.84"
       y2="282.01001"
       id="line42" />
    <path
       class="cls-5"
       d="m 370.43,227.08 h 33.65 c 9.65,0 9.67,-15 0,-15 h -33.65 c -9.65,0 -9.67,15 0,15 z"
       id="path43" />
    <line
       class="cls-5"
       x1="404.07999"
       x2="370.42999"
       y1="219.58"
       y2="219.58"
       id="line43" />
    <path
       class="cls-5"
       d="m 357.49,163.63 29.14,-16.83 c 8.36,-4.82 0.81,-17.79 -7.57,-12.95 l -29.15,16.83 c -8.35,4.82 -0.81,17.79 7.58,12.95 z"
       id="path44" />
    <line
       class="cls-5"
       x1="353.70001"
       x2="382.85001"
       y1="157.14999"
       y2="140.33"
       id="line44" />
    <path
       class="cls-5"
       d="M 314.48,115.24 331.3,86.09 c 4.84,-8.37 -8.12,-15.93 -12.95,-7.57 l -16.83,29.15 c -4.83,8.33 8.13,15.94 12.96,7.57 z"
       id="path45" />
    <line
       class="cls-5"
       x1="308"
       x2="324.82999"
       y1="111.45"
       y2="82.309998"
       id="line45" />
    <path
       class="cls-5"
       d="m 161,266.69 c -0.54,0.89 -1.07,1.79 -1.57,2.71 -15.16,27.65 -9.63,63.37 13.66,84.79 a 70.88,70.88 0 0 0 47.42,18.61 c 4.86,0.06 7.27,-3.72 7.24,-7.5"
       id="path46" />
    <path
       class="cls-5"
       d="m 236.75,235.31 a 71.07,71.07 0 0 0 -65.5,18.5"
       id="path47" />
    <path
       class="cls-5"
       d="M 326.32,207.41 A 77.68,77.68 0 0 0 316,204.82 82.25,82.25 0 0 0 236.79,235.31"
       id="path48" />
    <path
       class="cls-5"
       d="m 354,365.3 c -0.05,3.79 2.36,7.57 7.24,7.5 A 59.9,59.9 0 0 0 420,320.46 c 3.54,-28.75 -15.3,-56 -42.73,-63.9"
       id="path49" />
    <path
       class="cls-5"
       d="m 377.26,256.56 a 83.62,83.62 0 0 0 -35.1,-42"
       id="path50" />
    <path
       class="cls-5"
       d="m 377.26,256.56 c 0.54,1.41 1,2.84 1.51,4.29 l -5.24,-5.24 c 1.26,0.27 2.47,0.6 3.73,0.95 z"
       id="path51" />
    <path
       class="cls-5"
       d="m 241.73,236.63 c -1.65,-0.51 -3.32,-0.94 -5,-1.32 -1.21,1.54 -2.38,3.13 -3.49,4.77 z"
       id="path52" />
    <path
       class="cls-5"
       d="m 342.33,219 c 0,-1.47 -0.09,-2.95 -0.17,-4.41 a 78.41,78.41 0 0 0 -15.84,-7.2 81.11,81.11 0 0 1 0.89,8.29"
       id="path53" />
    <path
       class="cls-5"
       d="m 328.18,216.08 c 3.1,-5.82 13.72,-4.84 14.15,2.94"
       id="path54" />
    <path
       class="cls-5"
       d="m 174.86,260.82 q -2,-3.42 -3.61,-7 A 68.43,68.43 0 0 0 161,266.69 c 0.53,1 1.08,1.92 1.65,2.86 0.91,1.5 1.87,3 2.86,4.4"
       id="path55" />
    <path
       class="cls-5"
       d="m 342.33,220.15 a 7.37,7.37 0 0 1 -0.76,2.89"
       id="path56" />
    <path
       class="cls-5"
       d="m 342.33,219 c 0,0.18 0,0.37 0,0.56 v 0.07 c 0,0.14 0,0.28 0,0.42"
       id="path57" />
    <path
       class="cls-5"
       d="m 342.33,220.07 c 0,-0.14 0,-0.28 0,-0.42"
       id="path58" />
    <path
       class="cls-5"
       d="m 342.33,220.07 v 0.08"
       id="path59" />
    <path
       class="cls-5"
       d="m 342.22,223.47 c 0.05,-1.1 0.1,-2.21 0.11,-3.32"
       id="path60" />
    <path
       class="cls-5"
       d="m 341.4,232.24 a 66.91,66.91 0 0 1 22.91,32.59 7.52,7.52 0 0 0 5.24,5.24 c 22.53,4.89 38.5,25.75 35.6,49 -2.74,22.09 -22,38.41 -43.95,38.7 -4.78,0.07 -7.2,3.78 -7.24,7.5 h 7.24 a 51.75,51.75 0 0 0 10.34,-102.46 73.9,73.9 0 0 0 -29.32,-39.37"
       id="path61" />
    <path
       class="cls-5"
       d="m 327.21,215.7 a 73.74,73.74 0 0 0 -83.52,22.76 q -2.1,2.61 -4,5.4 a 60.56,60.56 0 0 0 -6.89,-1.8 v 0 a 62.27,62.27 0 0 0 -58,18.77"
       id="path62" />
    <path
       class="cls-5"
       d="m 179.16,267.37 a 54.19,54.19 0 0 1 14.14,-11.78 c 13.59,-7.83 29.55,-9.09 44.44,-4.5 3.34,1 6.62,-0.73 8.47,-3.44 14.64,-21.54 41.42,-33.14 67.15,-28.1 a 67.43,67.43 0 0 1 13.82,4.3"
       id="path63" />
    <path
       class="cls-5"
       d="m 165.55,273.95 a 62.24,62.24 0 0 0 55,91.35 h 7.24 c 0,-3.72 -2.44,-7.44 -7.24,-7.5 -24.5,-0.27 -46.36,-16.6 -52.84,-40.4 a 54.66,54.66 0 0 1 3,-36.61"
       id="path64" />
    <path
       class="cls-5"
       d="m 341.57,223 a 73,73 0 0 0 -13.39,-7"
       id="path65" />
    <path
       class="cls-5"
       d="m 329.75,225 c 1,0.47 1.94,1 2.89,1.48"
       id="path66" />
    <path
       class="cls-5"
       d="m 174.86,260.82 a 62.33,62.33 0 0 0 -9.31,13.13 q 2.43,3.56 5.14,6.84 a 55.56,55.56 0 0 1 8.47,-13.42 75.29,75.29 0 0 1 -4.3,-6.55 z"
       id="path67" />
    <path
       class="cls-5"
       d="m 328.18,216.08 -1,-0.38 c 0.07,1.29 0.12,2.58 0.13,3.88 a 7.48,7.48 0 0 1 0.87,-3.5 z"
       id="path68" />
    <path
       class="cls-5"
       d="m 327.34,219.58 c 0,1.43 -0.08,2.85 -0.16,4.27 0.87,0.38 1.73,0.77 2.57,1.19 a 7,7 0 0 1 -2.41,-5.46 z"
       id="path69" />
    <path
       class="cls-5"
       d="m 332.64,226.52 a 67.93,67.93 0 0 1 8.76,5.72 c 0.41,-2.89 0.68,-5.82 0.82,-8.77 l -0.65,-0.43 c -1.63,3.23 -5.57,4.39 -8.93,3.48 z"
       id="path70" />
    <path
       class="cls-5"
       d="m 328.67,365.3 4.78,-4.82 11.94,-12 c 4.57,-4.6 1.21,-12.8 -5.31,-12.8 h -18 l 12.06,-18 c 3.23,-4.82 -1.06,-11.29 -6.48,-11.29 -12.94,0 -25.94,-0.38 -38.9,-0.16 -2.27,0 -4.55,0.08 -6.82,0.16 -4.63,0.16 -7.06,2.82 -9.07,6.11 -1,1.58 -1.86,3.31 -2.84,5 l -14.89,25.41 -10.81,18.45 a 7.2,7.2 0 0 0 -1,4 7.58,7.58 0 0 0 7.46,7.3 H 269.4 L 238.69,435 c -3.1,4.77 0.79,10.6 5.58,11.4 a 6.17,6.17 0 0 0 6.86,-2.89 z"
       id="path71" />
    <path
       class="cls-5"
       d="m 307.54,365.3 -35.48,35.77 15.86,-32.19 a 8.36,8.36 0 0 0 0.85,-3.58 7.3,7.3 0 0 0 -7.33,-7.7 h -17.55 l 21.24,-36.25 h 28.5 l -12.07,18 c -3.22,4.82 1.06,11.29 6.48,11.29 h 14 q -7.22,7.36 -14.5,14.66 z"
       id="path72" />
  </g>
</svg>
