<?xml version="1.0" encoding="UTF-8" standalone="no"?>
<!-- Uploaded to: SVG Repo, www.svgrepo.com, Generator: SVG Repo Mixer Tools -->

<svg
   fill="#000000"
   height="800px"
   width="800px"
   version="1.1"
   id="Layer_1"
   viewBox="0 0 512 512"
   xml:space="preserve"
   sodipodi:docname="sun-svgrepo-com.svg"
   inkscape:version="1.3.2 (091e20e, 2023-11-25, custom)"
   xmlns:inkscape="http://www.inkscape.org/namespaces/inkscape"
   xmlns:sodipodi="http://sodipodi.sourceforge.net/DTD/sodipodi-0.dtd"
   xmlns="http://www.w3.org/2000/svg"
   xmlns:svg="http://www.w3.org/2000/svg"><defs
   id="defs26" /><sodipodi:namedview
   id="namedview26"
   pagecolor="#ffffff"
   bordercolor="#000000"
   borderopacity="0.25"
   inkscape:showpageshadow="2"
   inkscape:pageopacity="0.0"
   inkscape:pagecheckerboard="0"
   inkscape:deskcolor="#d1d1d1"
   inkscape:zoom="0.5"
   inkscape:cx="-47"
   inkscape:cy="285"
   inkscape:window-width="1920"
   inkscape:window-height="1009"
   inkscape:window-x="-8"
   inkscape:window-y="-8"
   inkscape:window-maximized="1"
   inkscape:current-layer="Layer_1" />
<g
   id="g2"
   transform="rotate(180,256,256)">
	<g
   id="g1">
		<path
   d="m 416.593,256.097 c -0.001,-1.492 -0.029,-2.978 -0.071,-4.461 -0.012,-0.437 -0.025,-0.872 -0.042,-1.308 -0.05,-1.369 -0.111,-2.736 -0.196,-4.097 -0.027,-0.444 -0.061,-0.885 -0.091,-1.329 -0.075,-1.085 -0.161,-2.167 -0.258,-3.247 -0.06,-0.669 -0.123,-1.337 -0.191,-2.004 -0.079,-0.771 -0.168,-1.539 -0.257,-2.307 -0.162,-1.393 -0.343,-2.784 -0.541,-4.168 -0.051,-0.353 -0.1,-0.707 -0.153,-1.059 -4.209,-28.166 -15.744,-54.343 -33.311,-76.205 -0.519,-0.649 -1.044,-1.294 -1.572,-1.934 -0.284,-0.343 -0.565,-0.687 -0.853,-1.027 -19.833,-23.617 -46.516,-41.555 -77.588,-50.649 -0.126,-0.037 -0.253,-0.071 -0.379,-0.108 -1.83,-0.531 -3.672,-1.036 -5.531,-1.505 -0.057,-0.015 -0.114,-0.032 -0.171,-0.046 -0.012,-0.003 -0.024,-0.003 -0.036,-0.007 -12.731,-3.204 -25.904,-4.829 -39.155,-4.829 -88.443,0 -160.397,71.953 -160.397,160.397 0,88.444 71.953,160.396 160.397,160.396 13.232,0 26.403,-1.62 39.148,-4.816 0.014,-0.003 0.029,-0.005 0.043,-0.008 0.076,-0.02 0.152,-0.043 0.229,-0.063 1.799,-0.455 3.582,-0.943 5.353,-1.456 0.188,-0.055 0.377,-0.107 0.563,-0.161 1.882,-0.553 3.746,-1.14 5.595,-1.756 0.066,-0.022 0.132,-0.044 0.198,-0.066 28.549,-9.555 53.119,-26.673 71.688,-48.769 0.332,-0.394 0.658,-0.792 0.987,-1.19 0.468,-0.568 0.932,-1.139 1.392,-1.713 17.618,-21.887 29.187,-48.109 33.402,-76.328 0.051,-0.337 0.097,-0.675 0.146,-1.012 0.2,-1.405 0.385,-2.814 0.549,-4.228 0.088,-0.756 0.176,-1.513 0.254,-2.272 0.068,-0.671 0.132,-1.344 0.192,-2.017 0.096,-1.074 0.182,-2.151 0.257,-3.231 0.031,-0.448 0.065,-0.897 0.093,-1.345 0.083,-1.359 0.146,-2.723 0.195,-4.09 0.015,-0.436 0.029,-0.872 0.042,-1.309 0.042,-1.483 0.07,-2.969 0.071,-4.461 0,-0.036 0.001,-0.071 0.001,-0.107 0,-0.036 -0.002,-0.069 -0.002,-0.105 z m -297.625,0.107 c 0,-71.893 55.573,-131.045 126.016,-136.769 -46.586,28.541 -76.449,79.744 -76.449,136.769 0,57.017 29.86,108.219 76.441,136.768 -70.439,-5.729 -126.008,-64.878 -126.008,-136.768 z m 274.346,5.372 c -0.017,0.461 -0.044,0.921 -0.066,1.381 -0.07,1.422 -0.158,2.841 -0.27,4.253 -0.03,0.382 -0.058,0.766 -0.092,1.147 -2.515,28.636 -13.84,55.054 -31.566,76.173 -0.581,0.689 -1.178,1.368 -1.773,2.046 -0.389,0.446 -0.78,0.891 -1.175,1.331 -8.605,9.547 -18.64,17.984 -29.946,25.001 -7.928,4.923 -16.316,8.988 -25.048,12.183 -0.573,0.209 -1.142,0.43 -1.72,0.631 -0.812,0.285 -1.633,0.547 -2.451,0.817 -0.964,0.316 -1.929,0.632 -2.903,0.929 -0.689,0.21 -1.381,0.409 -2.073,0.609 -0.572,0.164 -1.15,0.315 -1.725,0.473 -59.503,-16.313 -100.803,-70.31 -100.803,-132.346 0,-62.042 41.302,-116.035 100.804,-132.335 0.548,0.149 1.098,0.293 1.644,0.449 0.744,0.213 1.486,0.427 2.225,0.653 0.894,0.272 1.779,0.562 2.664,0.851 0.898,0.294 1.798,0.583 2.688,0.895 0.425,0.148 0.841,0.312 1.264,0.463 8.867,3.214 17.388,7.326 25.438,12.318 10.155,6.302 19.289,13.748 27.279,22.118 0.028,0.029 0.056,0.058 0.083,0.087 0.869,0.912 1.719,1.837 2.56,2.771 0.419,0.467 0.833,0.938 1.245,1.412 0.576,0.657 1.153,1.312 1.715,1.978 17.731,21.118 29.058,47.539 31.574,76.181 0.034,0.383 0.061,0.769 0.092,1.154 0.112,1.411 0.2,2.827 0.269,4.249 0.022,0.461 0.049,0.921 0.066,1.383 0.068,1.784 0.114,3.573 0.114,5.371 0,1.798 -0.044,3.59 -0.113,5.374 z"
   id="path1" />
	</g>
</g>
<g
   id="g4"
   transform="rotate(180,256,256)">
	<g
   id="g3">
		<path
   d="m 363.586,244.621 c -6.398,0 -11.583,5.186 -11.583,11.583 0,29.031 -12.878,56.126 -35.332,74.334 -4.969,4.03 -5.73,11.324 -1.702,16.292 2.29,2.824 5.632,4.288 9.004,4.288 2.563,0 5.143,-0.847 7.288,-2.587 27.904,-22.628 43.908,-56.28 43.908,-92.327 0,-6.398 -5.185,-11.583 -11.583,-11.583 z"
   id="path2" />
	</g>
</g>
<g
   id="g6"
   transform="rotate(180,256,256)">
	<g
   id="g5">
		<path
   d="m 256.198,431.088 c -6.397,0 -11.583,5.186 -11.583,11.583 v 21.654 c 0,6.398 5.186,11.583 11.583,11.583 6.397,0 11.583,-5.186 11.583,-11.583 v -21.654 c 0,-6.397 -5.185,-11.583 -11.583,-11.583 z"
   id="path4" />
	</g>
</g>
<g
   id="g8"
   transform="rotate(180,256,256)">
	<g
   id="g7">
		<path
   d="m 267.557,498.152 c -0.151,-0.741 -0.371,-1.471 -0.66,-2.166 -0.29,-0.695 -0.649,-1.367 -1.066,-2.004 -0.429,-0.626 -0.904,-1.228 -1.448,-1.761 -0.533,-0.533 -1.124,-1.019 -1.761,-1.436 -0.625,-0.417 -1.297,-0.776 -1.992,-1.066 -0.695,-0.29 -1.425,-0.51 -2.166,-0.66 -1.494,-0.301 -3.035,-0.301 -4.529,0 -0.741,0.151 -1.471,0.371 -2.166,0.66 -0.695,0.29 -1.378,0.649 -2.004,1.066 -0.637,0.417 -1.228,0.904 -1.761,1.436 -0.533,0.532 -1.019,1.135 -1.436,1.761 -0.417,0.637 -0.776,1.309 -1.066,2.004 -0.29,0.695 -0.51,1.425 -0.66,2.166 -0.151,0.753 -0.232,1.506 -0.232,2.259 0,0.764 0.081,1.517 0.232,2.27 0.151,0.741 0.371,1.471 0.66,2.166 0.29,0.695 0.649,1.367 1.066,2.004 0.417,0.626 0.904,1.216 1.436,1.761 0.533,0.533 1.124,1.008 1.761,1.436 0.625,0.417 1.309,0.776 2.004,1.066 0.695,0.29 1.425,0.51 2.166,0.66 0.753,0.151 1.506,0.22 2.259,0.22 0.765,0 1.517,-0.069 2.27,-0.22 0.741,-0.151 1.471,-0.371 2.166,-0.66 0.695,-0.29 1.367,-0.649 1.992,-1.066 0.637,-0.429 1.228,-0.904 1.761,-1.436 0.544,-0.544 1.019,-1.135 1.448,-1.761 0.417,-0.637 0.776,-1.309 1.066,-2.004 0.29,-0.695 0.51,-1.425 0.66,-2.166 0.151,-0.753 0.22,-1.506 0.22,-2.27 0,-0.753 -0.07,-1.506 -0.22,-2.259 z"
   id="path6" />
	</g>
</g>
<g
   id="g10"
   transform="rotate(180,256,256)">
	<g
   id="g9">
		<path
   d="m 303.596,353.326 c -2.164,-6.021 -8.798,-9.148 -14.817,-6.984 l -0.145,0.052 c -4.727,1.698 -7.67,6.154 -7.669,10.903 0,1.3 0.221,2.621 0.686,3.914 1.698,4.727 6.152,7.669 10.901,7.669 1.3,0 2.624,-0.221 3.916,-0.686 l 0.145,-0.052 c 4.727,-1.698 7.67,-6.154 7.669,-10.903 0,-1.299 -0.222,-2.621 -0.686,-3.913 z"
   id="path8" />
	</g>
</g>
<g
   id="g12"
   transform="rotate(180,256,256)">
	<g
   id="g11">
		<path
   d="m 420.343,92.057 c -4.523,-4.524 -11.858,-4.524 -16.381,0 l -24.386,24.386 c -4.523,4.523 -4.523,11.858 0,16.382 2.262,2.262 5.226,3.393 8.191,3.393 2.964,0 5.93,-1.13 8.191,-3.393 l 24.386,-24.386 c 4.523,-4.522 4.523,-11.857 -10e-4,-16.382 z"
   id="path10" />
	</g>
</g>
<g
   id="g14"
   transform="rotate(180,256,256)">
	<g
   id="g13">
		<path
   d="m 132.818,379.582 c -4.522,-4.523 -11.857,-4.523 -16.381,0 l -24.386,24.386 c -4.523,4.523 -4.523,11.858 0,16.382 2.262,2.262 5.226,3.393 8.191,3.393 2.965,0 5.93,-1.131 8.191,-3.393 l 24.386,-24.386 c 4.522,-4.523 4.522,-11.858 -10e-4,-16.382 z"
   id="path12" />
	</g>
</g>
<g
   id="g16"
   transform="rotate(180,256,256)">
	<g
   id="g15">
		<path
   d="M 132.818,116.443 108.433,92.058 c -4.523,-4.523 -11.858,-4.523 -16.382,0 -4.523,4.523 -4.523,11.858 0,16.382 l 24.386,24.385 c 2.262,2.262 5.226,3.393 8.191,3.393 2.965,0 5.93,-1.131 8.191,-3.393 4.522,-4.523 4.522,-11.858 -10e-4,-16.382 z"
   id="path14" />
	</g>
</g>
<g
   id="g18"
   transform="rotate(180,256,256)">
	<g
   id="g17">
		<path
   d="m 420.342,403.968 -24.385,-24.386 c -4.523,-4.523 -11.858,-4.523 -16.382,0 -4.523,4.523 -4.523,11.858 0,16.382 l 24.386,24.386 c 2.262,2.262 5.226,3.393 8.191,3.393 2.964,0 5.93,-1.131 8.191,-3.393 4.523,-4.523 4.523,-11.858 -0.001,-16.382 z"
   id="path16" />
	</g>
</g>
<g
   id="g20"
   transform="rotate(180,256,256)">
	<g
   id="g19">
		<path
   d="M 70.13,244.621 H 11.583 C 5.186,244.621 0,249.806 0,256.204 c 0,6.398 5.186,11.583 11.583,11.583 H 70.13 c 6.397,0 11.583,-5.186 11.583,-11.583 0,-6.397 -5.185,-11.583 -11.583,-11.583 z"
   id="path18" />
	</g>
</g>
<g
   id="g22"
   transform="rotate(180,256,256)">
	<g
   id="g21">
		<path
   d="m 256.198,0.006 c -6.397,0 -11.583,5.186 -11.583,11.583 v 58.547 c 0,6.397 5.186,11.583 11.583,11.583 6.397,0 11.583,-5.186 11.583,-11.583 V 11.589 c 0,-6.397 -5.185,-11.583 -11.583,-11.583 z"
   id="path20" />
	</g>
</g>
<g
   id="g24"
   transform="rotate(180,256,256)">
	<g
   id="g23">
		<path
   d="m 464.321,244.621 h -21.654 c -6.398,0 -11.583,5.186 -11.583,11.583 0,6.397 5.186,11.583 11.583,11.583 h 21.654 c 6.398,0 11.583,-5.186 11.583,-11.583 0,-6.397 -5.186,-11.583 -11.583,-11.583 z"
   id="path22" />
	</g>
</g>
<g
   id="g26"
   transform="rotate(180,256,256)">
	<g
   id="g25">
		<path
   d="m 511.768,253.94 c -0.151,-0.741 -0.371,-1.471 -0.66,-2.166 -0.29,-0.695 -0.649,-1.378 -1.066,-2.004 -0.429,-0.625 -0.904,-1.228 -1.436,-1.761 -0.544,-0.533 -1.135,-1.019 -1.761,-1.436 -0.637,-0.417 -1.309,-0.776 -2.004,-1.066 -0.695,-0.29 -1.425,-0.51 -2.166,-0.66 -1.494,-0.301 -3.035,-0.301 -4.529,0 -0.741,0.151 -1.471,0.371 -2.166,0.66 -0.695,0.29 -1.367,0.649 -2.004,1.066 -0.626,0.417 -1.228,0.904 -1.761,1.436 -0.533,0.532 -1.019,1.135 -1.436,1.761 -0.417,0.625 -0.776,1.309 -1.066,2.004 -0.29,0.695 -0.51,1.425 -0.66,2.166 -0.151,0.753 -0.232,1.506 -0.232,2.259 0,0.765 0.081,1.517 0.232,2.27 0.151,0.741 0.371,1.459 0.66,2.166 0.29,0.695 0.649,1.367 1.066,1.992 0.417,0.637 0.904,1.228 1.436,1.761 0.532,0.533 1.135,1.019 1.761,1.448 0.637,0.417 1.309,0.776 2.004,1.066 0.695,0.29 1.425,0.51 2.166,0.66 0.741,0.15 1.506,0.22 2.259,0.22 0.764,0 1.517,-0.07 2.27,-0.22 0.741,-0.151 1.471,-0.371 2.166,-0.66 0.695,-0.29 1.367,-0.649 2.004,-1.066 0.626,-0.429 1.216,-0.915 1.761,-1.448 0.533,-0.533 1.008,-1.124 1.436,-1.761 0.417,-0.625 0.776,-1.297 1.066,-1.992 0.29,-0.707 0.51,-1.425 0.66,-2.166 0.151,-0.753 0.232,-1.506 0.232,-2.27 0,-0.753 -0.081,-1.506 -0.232,-2.259 z"
   id="path24" />
	</g>
</g>
<path
   style="fill:#e86c16;stroke-width:1.3916;fill-opacity:1"
   d="M 327.72181,600.62825 C 253.12583,573.35662 200.50386,509.38144 188.522,431.39602 c -2.94881,-19.19268 -2.63249,-47.79136 0.74727,-67.56083 13.08804,-76.55678 67.1014,-140.17859 141.01419,-166.09919 l 12.30284,-4.31451 12.32293,4.12856 c 71.27399,23.87899 124.488,84.59357 140.74339,160.58134 4.14822,19.39132 4.46437,59.04097 0.63413,79.52683 -5.34986,28.61337 -17.24684,57.64609 -33.78805,82.45442 -11.21898,16.82613 -39.16117,44.6725 -56.0858,55.8935 -7.23498,4.79679 -18.50694,11.40926 -25.0488,14.6944 -12.5648,6.30966 -34.87691,14.69308 -38.79347,14.576 -1.27843,-0.0382 -7.9604,-2.12994 -14.84882,-4.64829 z M 240.15658,416.23438 c 7.54306,-3.42591 9.77375,-8.66676 10.96322,-25.75735 1.77325,-25.47836 10.55885,-51.96656 23.9312,-72.15147 3.67509,-5.54738 13.32376,-16.97457 21.44149,-25.39375 8.41058,-8.72291 15.17616,-16.9762 15.72811,-19.18664 3.44468,-13.79505 -10.98479,-26.4432 -24.92044,-21.84402 -6.69189,2.20852 -30.90383,26.33456 -40.47849,40.33486 -20.56629,30.07254 -32.43019,65.7055 -32.97051,99.02615 -0.27177,16.75981 1.29089,20.5805 10.29537,25.172 6.00473,3.06188 8.90844,3.02565 16.01005,-0.19978 z M 353.20226,257.41034 c 8.13919,-4.96233 10.8813,-16.4066 5.89179,-24.58962 -7.57281,-12.41977 -24.85674,-13.07812 -32.3098,-1.23069 -5.55422,8.82904 -1.31208,23.50302 7.89556,27.31156 5.08572,2.10359 13.77345,1.40414 18.52245,-1.49125 z"
   id="path26"
   transform="scale(0.64)" /><path
   style="fill:#e86c16;fill-opacity:1;stroke-width:0.086975"
   d="m 185.92098,415.6318 c -0.0793,-1.02527 -0.29052,-4.61196 -0.42129,-7.15369 -0.14949,-2.90555 -0.14995,-14.828 -6.8e-4,-17.61244 0.41496,-7.74034 0.76008,-11.96995 1.41231,-17.30803 3.00644,-24.60606 10.1008,-48.09424 21.23264,-70.29754 l 1.38448,-2.76146 h 0.59309 0.59308 l -0.81637,1.58729 c -9.07863,17.65178 -15.53979,36.00504 -19.46603,55.29436 -2.14453,10.53593 -3.21326,19.93738 -3.78673,33.31143 -0.0503,1.17199 -0.11455,4.6749 -0.14287,7.78426 -0.0583,6.40056 0.062,11.88041 0.37178,16.93838 l 0.0573,0.93498 h -0.47759 -0.47759 z"
   id="path27"
   transform="scale(0.64)" /><path
   style="fill:#e86c16;fill-opacity:1;stroke-width:0.086975"
   d="m 213.9746,389.19617 c -0.0181,-1.04863 0.0994,-3.57288 0.29273,-6.28871 1.33958,-18.81405 6.22935,-38.44999 14.24056,-57.18607 2.76593,-6.46879 6.46892,-13.9245 9.87062,-19.87379 1.17021,-2.04661 2.88539,-4.9422 3.08202,-5.20309 0.0868,-0.11524 0.20862,-0.15088 0.44578,-0.13047 l 0.32629,0.0281 -0.48527,0.77176 c -4.20413,6.68612 -8.74613,15.26833 -12.15778,22.97241 -4.76649,10.76356 -8.55064,22.20025 -11.18028,33.78979 -2.35141,10.36335 -3.77086,20.56798 -4.3916,31.57193 -0.0148,0.2631 -0.0342,0.0598 -0.0431,-0.45185 z"
   id="path28"
   transform="scale(0.64)" /><path
   style="fill:#e86c16;fill-opacity:1;stroke-width:0.086975"
   d="m 250.09706,396.91043 c 0.0389,-3.26508 0.1163,-5.09487 0.35144,-8.30611 2.18788,-29.87935 13.11154,-58.09457 31.54824,-81.48743 2.03251,-2.57889 5.35442,-6.49789 5.58187,-6.58517 0.057,-0.0219 0.48578,-0.0285 0.95289,-0.0147 l 0.84929,0.0251 -1.0808,1.22694 c -6.17622,7.01139 -11.12334,13.20777 -13.70309,17.16344 -12.46878,19.11904 -20.82877,43.51211 -23.19232,67.67138 -0.0725,0.74146 -0.25066,2.87453 -0.39582,4.74014 -0.26814,3.4461 -0.60313,6.70645 -0.82661,8.04519 -0.11481,0.68773 -0.12074,0.51487 -0.0851,-2.47879 z"
   id="path29"
   transform="scale(0.64)" /><path
   style="fill:#e86c16;fill-opacity:1;stroke-width:0.17395"
   d="M 339.63739,605.42159 C 308.31454,596.411 278.59526,579.58718 254.07976,556.98815 233.1622,537.70579 216.15103,514.13548 204.42724,488.1907 c -9.34522,-20.68103 -15.32353,-42.57841 -17.76159,-65.05731 -0.64109,-5.91089 -0.63017,-5.47942 -0.13869,-5.47942 0.4132,0 0.43231,0.0532 0.54736,1.52206 1.57467,20.10466 7.16585,42.79065 15.40165,62.49154 9.28726,22.21608 21.5843,41.77751 37.68543,59.94783 3.60056,4.06328 12.68657,13.16338 16.76276,16.78877 19.98351,17.77341 42.19688,31.31587 67.1447,40.935 8.05925,3.10739 17.09338,6.00686 18.71616,6.00686 3.35268,0 20.34093,-6.13165 33.12095,-11.95451 8.23726,-3.75307 18.23965,-9.37179 28.89678,-16.23243 9.10788,-5.8633 19.78452,-14.92006 32.0785,-27.21151 12.33031,-12.32777 20.53635,-21.96404 26.74183,-31.40261 14.16518,-21.54539 25.12718,-47.13798 30.90803,-72.15996 2.12055,-9.17861 2.99345,-14.86233 3.75062,-24.42103 0.13851,-1.74863 0.25344,-3.43374 0.25541,-3.74467 0.003,-0.51616 0.0508,-0.56534 0.54587,-0.56534 h 0.54229 l -0.11757,1.34811 c -2.8668,32.87309 -13.77783,65.54452 -31.3328,93.82148 -21.30166,34.31198 -51.89118,61.94055 -88.00719,79.48839 -11.81757,5.74187 -23.97943,10.34387 -36.96437,13.98718 -0.14351,0.0403 -1.7482,-0.35463 -3.56598,-0.87754 z"
   id="path30"
   transform="scale(0.64)" /><path
   style="fill:#e86c16;fill-opacity:1;stroke-width:0.0615006"
   d="m 493.63533,349.36962 c -0.0144,-0.0423 -0.18136,-0.67189 -0.37094,-1.39914 -6.81686,-26.14996 -18.46129,-51.11208 -33.96785,-72.81673 -1.65519,-2.31678 -4.14699,-5.6622 -5.62293,-7.5492 -0.0473,-0.0605 0.0891,-0.0769 0.64125,-0.0769 h 0.70138 l 1.04993,1.36838 c 16.14435,21.04109 28.1567,44.64059 35.62576,69.99055 0.88458,3.00222 2.138,7.66022 2.67194,9.9295 l 0.14832,0.63039 h -0.42531 c -0.28524,0 -0.43395,-0.0253 -0.45155,-0.0769 z"
   id="path31"
   transform="scale(0.64)" /><path
   style="fill:#e86c16;fill-opacity:1;stroke-width:0.086975"
   d="m 498.83374,411.457 c 0.12005,-3.20908 0.16193,-16.52589 0.0628,-19.98251 -0.35458,-12.36981 -1.24404,-22.58078 -2.66304,-30.57171 -0.41938,-2.3617 -2.14141,-10.05025 -2.52754,-11.28501 -0.041,-0.13119 0.0132,-0.1522 0.39314,-0.1522 0.2424,0 0.44092,0.0293 0.44115,0.0652 2.3e-4,0.0359 0.23747,1.10241 0.52719,2.37007 3.8218,16.72209 5.67406,34.83958 5.30181,51.85853 -0.0851,3.88907 -0.19416,6.7857 -0.31613,8.3934 l -0.0544,0.71754 h -0.60893 -0.60893 z"
   id="path32"
   transform="scale(0.64)" /><path
   style="fill:#e86c16;fill-opacity:1;stroke-width:0.086975"
   d="m 498.58808,416.59649 c 0.0336,-0.60553 0.0856,-1.68184 0.11557,-2.39181 l 0.0545,-1.29085 0.63057,-0.0256 c 0.47108,-0.0191 0.63053,0.003 0.63042,0.087 -2.8e-4,0.21158 -0.25865,3.67752 -0.31097,4.17153 l -0.0522,0.49303 -0.56447,0.0288 -0.56447,0.0288 z"
   id="path33"
   transform="scale(0.64)" /><path
   style="fill:#e86c16;fill-opacity:1;stroke-width:0.17395"
   d="m 288.50928,299.49843 c 4.74552,-5.1374 7.71217,-8.05779 12.30436,-12.1125 3.63733,-3.21161 2.83564,-2.19989 -4.05,5.11101 -2.07247,2.20047 -4.57534,4.88147 -5.56193,5.95779 l -1.79379,1.95693 h -0.87111 -0.8711 z"
   id="path34"
   transform="scale(0.64)" /><path
   style="fill:#e86c16;fill-opacity:1;stroke-width:0.17395"
   d="m 242.69455,298.71565 c 5.45021,-8.66699 10.05867,-14.56302 18.59296,-23.78766 3.09635,-3.34682 4.1602,-4.41022 4.1602,-4.15843 0,0.0957 -0.3224,0.48337 -0.71644,0.86156 -0.91236,0.87566 -4.83637,5.20419 -6.77341,7.47167 -5.07806,5.94433 -9.98496,12.50908 -14.33719,19.18116 -0.89537,1.37261 -1.49523,2.12771 -1.69029,2.12771 -0.23493,0 -0.0645,-0.37823 0.76417,-1.69601 z"
   id="path35"
   transform="scale(0.64)" /><path
   style="fill:#e86c16;fill-opacity:1;stroke-width:0.17395"
   d="m 209.78371,300.29558 c 0,-0.39152 4.68837,-8.72799 7.27184,-12.93017 16.15834,-26.28259 37.45475,-48.35079 63.57379,-65.87773 3.6924,-2.47776 4.01676,-2.65857 4.76913,-2.65857 0.444,0 0.77466,0.0312 0.7348,0.0693 -0.0399,0.0381 -1.83373,1.24211 -3.98636,2.67552 -24.52309,16.32962 -44.88832,36.75203 -60.93283,61.10393 -2.83188,4.29815 -6.76402,10.839 -8.9081,14.81804 -1.4364,2.66571 -1.60501,2.90581 -2.04391,2.91056 -0.2631,0.003 -0.47836,-0.0471 -0.47836,-0.1109 z"
   id="path36"
   transform="scale(0.64)" /><path
   style="fill:#e86c16;fill-opacity:1;stroke-width:0.123001"
   d="m 228.96679,418.27396 c -2.82846,-0.73364 -6.91707,-2.80747 -9.47892,-4.80791 -1.93985,-1.51474 -3.36584,-3.48465 -4.12973,-5.70493 -0.36668,-1.06576 -0.2659,-1.01298 0.37655,0.19721 1.5515,2.92256 3.56716,5.1679 6.18384,6.88845 8.58626,5.64575 20.28211,2.99055 25.54137,-5.79842 0.60054,-1.00358 0.67437,-0.88195 0.12809,0.21099 -1.08666,2.17406 -2.73414,4.08231 -4.57625,5.30061 -2.28772,1.513 -6.23866,3.18896 -8.85297,3.75537 -1.67481,0.36286 -3.69558,0.34676 -5.19198,-0.0414 z"
   id="path37"
   transform="scale(0.64)" /><path
   style="fill:#e86c16;fill-opacity:1;stroke-width:0.0217438"
   d="m 187.86945,432.99962 c -0.75639,-4.95674 -1.2403,-8.86918 -1.66539,-13.46482 -0.0985,-1.06529 -0.29598,-3.56073 -0.29168,-3.68652 0.002,-0.0533 0.0141,0.0352 0.0272,0.19665 l 0.0239,0.29354 0.4838,0.006 0.4838,0.006 0.004,-0.14719 c 0.005,-0.17682 0.001,-0.21515 0.0732,0.89651 0.22812,3.53543 0.57313,7.24819 0.9675,10.41148 0.0983,0.7888 0.11998,1.00029 0.0961,0.93876 -0.0135,-0.0348 -0.30345,-2.37615 -0.41061,-3.31592 -0.21561,-1.89073 -0.37022,-3.47211 -0.54531,-5.57727 -0.12225,-1.46994 -0.14238,-1.62593 -0.22794,-1.76663 -0.0654,-0.10756 -0.12179,-0.13051 -0.36073,-0.14686 -0.21309,-0.0146 -0.22102,-0.0135 -0.28267,0.0396 l -0.0634,0.0546 0.001,0.47474 c 0.002,0.48349 0.0128,0.62775 0.15241,1.95332 0.56057,5.32196 0.9803,8.66628 1.55414,12.38307 0.0711,0.46042 0.12926,0.85426 0.12927,0.87519 2e-5,0.0222 -0.0163,0.038 -0.0391,0.038 -0.0342,0 -0.048,-0.0578 -0.10964,-0.46206 z"
   id="path38"
   transform="scale(0.64)" /><path
   style="fill:#e86c16;fill-opacity:1;stroke-width:0.123001"
   d=""
   id="path39"
   transform="scale(0.64)" /><path
   style="fill:#e86c16;fill-opacity:1;stroke-width:0.123001"
   d="m 347.84748,259.21166 c 2.12518,-0.62574 4.41714,-1.77901 6.10958,-3.07424 0.48511,-0.37126 1.40551,-1.22041 2.04532,-1.887 2.39159,-2.49169 3.941,-5.44488 4.71455,-8.98597 0.32347,-1.48074 0.32764,-5.50847 0.007,-7.01107 -0.48477,-2.27353 -1.55651,-4.88189 -2.69513,-6.55929 -0.26759,-0.39421 -0.45854,-0.74472 -0.42434,-0.77892 0.0342,-0.0342 0.34728,0.34368 0.69574,0.83974 2.0348,2.8967 3.03127,5.87456 3.16237,9.4505 0.079,2.15412 -0.0547,3.48323 -0.5381,5.35056 -0.8516,3.28962 -2.35095,5.93627 -4.71083,8.31555 -2.23934,2.25776 -4.51179,3.53237 -7.77035,4.35837 -1.54604,0.3919 -1.94731,0.37963 -0.59607,-0.0182 z"
   id="path40"
   transform="scale(0.64)" /><path
   style="fill:#e86c16;fill-opacity:1;stroke-width:0.123001"
   d="m 324.37398,241.08241 c -0.0576,-5.45294 1.96686,-10.01148 6.03409,-13.58741 4.68598,-4.11994 11.63686,-5.42154 17.83723,-3.34014 1.19797,0.40215 2.75244,1.09682 2.5817,1.15373 -0.0727,0.0242 -0.34381,-0.0633 -0.60256,-0.19441 -0.85857,-0.43518 -3.15763,-1.10427 -4.5266,-1.31738 -1.65795,-0.25809 -5.01344,-0.19297 -6.46045,0.12537 -6.58793,1.44934 -11.60474,5.83217 -13.76255,12.02336 -0.47141,1.35257 -0.8453,3.3106 -0.9809,5.13688 l -0.10503,1.41452 z"
   id="path41"
   transform="scale(0.64)" /><path
   style="fill:#e86c16;fill-opacity:1;stroke-width:0.0153752"
   d="m 361.43272,240.49431 c -0.004,-0.0275 -0.012,-0.11224 -0.0171,-0.18834 -0.0293,-0.43375 -0.11355,-1.11629 -0.19967,-1.61716 -0.37939,-2.20661 -1.13934,-4.17686 -2.35628,-6.10886 -0.50895,-0.80801 -1.15634,-1.67589 -1.25012,-1.67589 -0.0228,0 -0.0164,0.0537 0.0153,0.12766 0.0508,0.11842 0.16744,0.31461 0.38587,0.64879 0.36347,0.5561 0.54197,0.85819 0.82217,1.39145 0.18215,0.34664 0.47201,0.95237 0.46533,0.97241 -0.003,0.008 -0.0526,-0.0847 -0.11092,-0.20601 -0.75412,-1.56852 -1.75091,-3.0392 -2.95405,-4.35847 -0.26662,-0.29235 -0.89795,-0.91663 -1.20757,-1.19407 -1.73753,-1.55697 -3.67227,-2.72658 -5.85447,-3.5392 -0.3255,-0.12121 -0.94295,-0.3254 -1.23792,-0.40937 -0.10083,-0.0287 -0.17329,-0.0541 -0.16103,-0.0565 0.0498,-0.01 1.09159,0.31016 1.56668,0.48089 0.37153,0.13352 0.54717,0.20508 0.86959,0.35429 0.3599,0.16657 0.60048,0.23851 0.63122,0.18877 0.0653,-0.10566 -1.4085,-0.76091 -2.6232,-1.16627 -3.1266,-1.04339 -6.49526,-1.24705 -9.74768,-0.58932 -0.22879,0.0463 -0.82248,0.18263 -0.9342,0.21457 -0.0295,0.008 -0.0346,0.004 -0.0346,-0.0297 0,-0.0329 0.01,-0.0422 0.0577,-0.0548 0.92667,-0.24343 2.04264,-0.43128 3.0635,-0.51566 0.95621,-0.079 2.07562,-0.0819 3.01353,-0.008 1.93316,0.15292 3.84031,0.59394 5.62641,1.30109 3.22924,1.27853 6.04891,3.37342 8.26384,6.1397 0.79396,0.99159 1.55154,2.13725 2.08143,3.14767 1.0483,1.99895 1.68163,4.15873 1.90162,6.48486 0.0314,0.33159 0.0325,0.31519 -0.022,0.31519 -0.0394,0 -0.0465,-0.007 -0.0532,-0.05 z"
   id="path42"
   transform="scale(0.64)" /><path
   style="fill:#e86c16;fill-opacity:1;stroke-width:0.0307503"
   d="m 341.19004,260.09604 c -2.07661,-0.0536 -4.04386,-0.36737 -5.64823,-0.90089 -1.15397,-0.38375 -1.99584,-0.79527 -3.05411,-1.49289 -0.8987,-0.59244 -1.62856,-1.19911 -2.44562,-2.03285 -3.03299,-3.09493 -5.05914,-7.59565 -5.59626,-12.43106 l -0.0602,-0.54155 0.0783,-1.01476 c 0.094,-1.21816 0.13915,-1.63354 0.11024,-1.01476 -0.0518,1.10875 -0.0109,2.39886 0.10588,3.33641 0.74988,6.02245 4.39197,11.21823 9.77561,13.94582 2.17143,1.10014 4.33532,1.71064 6.82657,1.92599 0.57399,0.0496 2.22829,0.0495 2.76753,-1.2e-4 1.11445,-0.10264 2.0095,-0.2491 2.96249,-0.48476 0.31019,-0.0767 0.57029,-0.13315 0.578,-0.12544 0.008,0.008 -0.0247,0.0233 -0.072,0.0345 -0.17415,0.0415 -0.50113,0.17774 -0.50113,0.2088 0,0.1095 1.76236,-0.31585 2.95611,-0.71348 1.94378,-0.64746 3.50114,-1.50598 4.99285,-2.75239 1.626,-1.35863 3.11206,-3.11597 4.12171,-4.87412 1.34694,-2.34549 2.22364,-5.25099 2.3846,-7.90283 0.0357,-0.58807 0.0215,-2.24465 -0.0219,-2.56158 -0.016,-0.11663 -0.0109,-0.14444 0.0263,-0.14444 0.0356,0 0.0508,0.0587 0.0671,0.25861 0.0382,0.4712 0.0221,1.97973 -0.0276,2.58459 -0.48464,5.89642 -3.63027,11.16043 -8.37979,14.02305 -2.28757,1.37876 -5.62177,2.32057 -9.19434,2.59714 -0.52135,0.0403 -1.90765,0.0947 -2.21402,0.0869 -0.12685,-0.003 -0.36901,-0.01 -0.53813,-0.0139 z"
   id="path43"
   transform="scale(0.64)" /><path
   style="fill:#e86c16;fill-opacity:1;stroke-width:0.123001"
   d="m 310.82684,275.94177 c -0.002,-0.074 0.10611,-0.45084 0.23913,-0.83747 0.61908,-1.79939 0.80365,-3.0875 0.80365,-5.6086 0,-2.63448 -0.13035,-3.53773 -0.81438,-5.64317 -0.93241,-2.86995 -2.19536,-4.91934 -4.46244,-7.24121 -0.54495,-0.55812 -0.93152,-1.01476 -0.85905,-1.01476 0.21671,0 2.4612,2.30468 3.19832,3.28408 2.6215,3.48315 3.89477,7.43977 3.69309,11.47606 -0.0998,1.99813 -0.34383,3.1812 -0.87517,4.24355 -0.44479,0.8893 -0.91835,1.57748 -0.92315,1.34152 z"
   id="path44"
   transform="scale(0.64)" /><path
   style="fill:#e86c16;fill-opacity:1;stroke-width:0.123001"
   d="m 266.3179,269.60329 c 1.17911,-1.29084 5.79449,-5.75469 8.58985,-8.30783 4.86025,-4.43912 8.98358,-7.66127 11.28834,-8.82118 2.9431,-1.48117 7.72478,-1.86408 11.52839,-0.92317 0.5412,0.13388 1.25051,0.32961 1.57623,0.43495 1.05686,0.34179 0.52543,0.30374 -0.91247,-0.0653 -5.33127,-1.36843 -11.06502,-0.2762 -15.31873,2.91808 -3.61943,2.71798 -10.19135,8.59742 -14.92683,13.35399 -2.57292,2.58439 -3.67574,3.43683 -1.82478,1.4105 z"
   id="path45"
   transform="scale(0.64)" /><path
   style="fill:#e86c16;fill-opacity:1;stroke-width:0.0153752"
   d="m 311.16157,262.62685 c -0.52058,-1.18043 -1.27548,-2.46866 -2.10705,-3.59564 -0.47096,-0.63827 -1.26503,-1.52245 -2.24231,-2.49677 -0.62412,-0.62222 -0.98208,-0.93788 -1.06359,-0.93788 -0.0421,0 -0.0362,0.0248 0.0272,0.11347 0.12858,0.17975 0.36024,0.43805 0.83794,0.93431 0.17622,0.18305 0.3204,0.33815 0.3204,0.34465 0,0.007 -0.18854,-0.17453 -0.41898,-0.40229 -0.44958,-0.44435 -0.70842,-0.68065 -1.13392,-1.03517 -2.20461,-1.83688 -4.80756,-3.11555 -7.62117,-3.74385 -2.48568,-0.55507 -5.10443,-0.57922 -7.59254,-0.07 -0.74108,0.15167 -1.34162,0.31211 -2.08045,0.5558 -0.25532,0.0842 -0.32729,0.0993 -0.2863,0.06 0.0163,-0.0156 0.53645,-0.18364 0.85999,-0.27781 1.1792,-0.34324 2.48191,-0.57736 3.75922,-0.67558 0.72021,-0.0554 1.92716,-0.0598 2.61378,-0.01 1.17779,0.0861 2.16168,0.24299 3.29754,0.52585 0.80075,0.19941 1.33781,0.31307 1.47925,0.31307 0.0652,0 0.062,-0.0258 -0.008,-0.0669 -0.17881,-0.10443 -1.46601,-0.47938 -2.32379,-0.67689 -3.01262,-0.69369 -6.7417,-0.5798 -9.53724,0.29127 -0.14433,0.045 -0.14911,0.0452 -0.14911,0.008 0,-0.0316 0.0229,-0.04 0.39975,-0.14541 1.122,-0.31401 2.38228,-0.5381 3.55166,-0.63152 0.59859,-0.0478 0.97057,-0.0586 1.72971,-0.0501 0.72795,0.008 1.05727,0.0244 1.62208,0.0801 4.50648,0.44412 8.81986,2.49713 12.10043,5.75936 1.31433,1.30698 2.42033,2.76285 3.30432,4.34959 0.24284,0.43589 0.65401,1.27497 0.82311,1.67973 0.0238,0.0571 0.0237,0.0577 -0.012,0.0577 -0.0319,0 -0.0492,-0.0299 -0.14964,-0.25753 z"
   id="path46"
   transform="scale(0.64)" /><path
   style="fill:#e86c16;fill-opacity:1;stroke-width:0.0217438"
   d="m 288.42105,299.4495 c 0.0926,-0.1103 1.14424,-1.25524 1.66233,-1.80971 3.51359,-3.76032 7.43043,-7.53144 11.35031,-10.92803 1.13123,-0.98022 3.11876,-2.64955 3.18009,-2.67098 0.0577,-0.0202 -1.6957,1.96147 -3.20128,3.61792 -1.60909,1.77033 -2.59684,2.82625 -4.71914,5.0448 -2.55317,2.66898 -4.17907,4.41516 -6.099,6.55023 -0.17934,0.19943 -0.25226,0.26604 -0.29147,0.26621 -0.0642,2.8e-4 -0.13597,0.0858 0.62849,-0.74916 1.18258,-1.29163 2.8661,-3.09695 5.88169,-6.30721 3.3367,-3.5521 4.53993,-4.85208 5.39295,-5.82657 0.78731,-0.89944 0.94312,-1.15993 0.52755,-0.88198 -0.29811,0.19939 -1.23595,1.00124 -2.74591,2.34773 -3.8467,3.43026 -6.66668,6.20715 -10.67309,10.50999 -0.67464,0.72456 -0.85578,0.90743 -0.89886,0.90743 h -0.0539 z"
   id="path47"
   transform="scale(0.64)" /><path
   style="fill:#e86c16;fill-opacity:1;stroke-width:0.0108719"
   d="m 256.54503,280.0079 c 0.1403,-0.1786 1.98093,-2.24129 2.92258,-3.27518 3.44396,-3.78128 6.63544,-7.08614 10.57517,-10.95087 l 0.24088,-0.23629 0.0527,1.8e-4 0.0527,1.8e-4 -0.0761,0.0732 c -1.26326,1.21518 -3.25595,3.1886 -3.76801,3.73159 -0.58512,0.62045 -1.13031,1.26108 -1.14785,1.34881 -0.004,0.0223 -0.02,0.0394 -0.0534,0.059 -0.33411,0.1958 -1.57908,1.47804 -4.37023,4.50107 -1.02006,1.10479 -2.12375,2.31755 -3.02265,3.32136 -0.34227,0.38221 -1.14937,1.29125 -1.23316,1.38892 l -0.0489,0.057 h -0.0693 c -0.0644,1e-5 -0.0682,-10e-4 -0.0544,-0.019 z"
   id="path48"
   transform="scale(0.64)" /><path
   style="fill:#e86c16;fill-opacity:1;stroke-width:0.00768758"
   d="m 260.12585,276.63553 c 0.0313,-0.0349 0.17442,-0.19488 0.31791,-0.35555 1.18713,-1.32919 2.4929,-2.76066 3.35531,-3.67827 0.41693,-0.44362 0.56597,-0.59793 0.89134,-0.92285 0.17577,-0.17553 0.36425,-0.36926 0.41885,-0.43051 0.18195,-0.20412 0.3018,-0.36376 0.33153,-0.44162 0.0148,-0.0387 0.0103,-0.0733 -0.01,-0.0733 -0.007,0 0.007,-0.0121 0.0316,-0.0268 0.13274,-0.0799 0.43604,-0.34001 0.89216,-0.76504 0.46449,-0.43283 0.88214,-0.84059 1.95673,-1.91037 0.49692,-0.49469 1.05864,-1.05079 1.24828,-1.23578 0.29366,-0.28646 0.34808,-0.33633 0.36704,-0.33633 0.0122,0 0.0222,10e-4 0.0222,0.002 0,10e-4 -0.1254,0.12485 -0.27867,0.27445 -2.982,2.91055 -5.77611,5.81792 -8.47402,8.81751 -0.28429,0.31608 -0.77658,0.86737 -0.94905,1.0628 l -0.0729,0.0827 h -0.0529 -0.0529 z"
   id="path49"
   transform="scale(0.64)" /><path
   style="fill:#e86c16;fill-opacity:1;stroke-width:0.086975"
   d="m 452.77895,266.4631 c -2.41295,-3.07225 -5.7676,-7.03948 -8.7722,-10.37407 -11.77674,-13.07017 -24.90746,-24.45607 -39.34886,-34.1201 -14.34427,-9.59906 -29.14503,-17.08468 -45.36415,-22.94336 -2.31738,-0.83709 -16.49933,-5.60274 -16.6992,-5.61155 -0.10904,-0.005 -7.92538,2.71347 -13.35066,4.64293 -3.64904,1.29775 -8.77345,3.29384 -11.81191,4.60105 -0.77037,0.33142 -1.43173,0.60258 -1.46971,0.60258 -0.038,0 -0.0691,-0.21085 -0.0691,-0.46857 v -0.46857 l 1.5873,-0.65686 c 8.199,-3.39294 17.3181,-6.53101 24.88772,-8.56436 l 0.59995,-0.16116 1.61791,0.45658 c 23.69763,6.68761 46.23855,17.51161 66.24034,31.80819 5.12932,3.66625 9.83259,7.35311 14.78575,11.59045 8.85283,7.57342 17.32191,16.14188 24.83749,25.12894 1.72058,2.05746 4.45005,5.44698 4.41147,5.47828 -0.0139,0.0113 -0.30102,0.0426 -0.63795,0.0695 l -0.6126,0.0489 z"
   id="path50"
   transform="scale(0.64)" /><path
   style="fill:#e86c16;fill-opacity:1;stroke-width:0.0307503"
   d="m 268.38975,230.20449 c 0.001,-0.0619 0.28587,-0.2845 2.28983,-1.79099 9.1632,-6.88847 18.75004,-12.99181 28.62854,-18.226 1.72363,-0.91328 2.82016,-1.47516 4.87392,-2.49746 3.68414,-1.83386 6.88591,-3.32019 10.57811,-4.91061 l 1.09163,-0.47022 0.0196,0.40924 c 0.0229,0.47915 0.0374,0.54015 0.12855,0.54367 0.0792,0.003 0.13833,-0.0246 -1.2244,0.57306 -11.0586,4.85003 -22.01677,10.80753 -31.98899,17.39107 -0.51215,0.33811 -0.93743,0.6085 -0.94506,0.60087 -0.008,-0.008 0.96231,-0.66869 2.15543,-1.469 1.52849,-1.02527 2.15969,-1.46475 2.13672,-1.48773 -0.046,-0.046 -0.901,-0.065 -1.11663,-0.0248 -0.55254,0.10311 -1.09219,0.4205 -3.85155,2.26526 -4.3151,2.88484 -8.17391,5.64322 -12.03055,8.59976 -0.39294,0.30123 -0.72158,0.54769 -0.73032,0.54769 -0.009,0 -0.0154,-0.0242 -0.0148,-0.0538 z"
   id="path51"
   transform="scale(0.64)" /><path
   style="fill:#e86c16;fill-opacity:1;stroke-width:0.0153752"
   d="m 244.14207,296.28666 c 0,-0.0451 1.94559,-2.96824 2.81408,-4.22793 2.27242,-3.29598 5.34766,-7.17735 9.1401,-11.53603 l 0.4305,-0.49478 0.0666,-1.2e-4 0.0666,-1.2e-4 -0.0512,0.0602 c -0.0282,0.0331 -0.2799,0.32196 -0.55936,0.64191 -4.47414,5.1223 -7.90854,9.61901 -11.39163,14.91521 -0.39879,0.60637 -0.43016,0.6496 -0.47146,0.6496 -0.0243,0 -0.0442,-0.004 -0.0442,-0.008 z"
   id="path52"
   transform="scale(0.64)" /><path
   style="fill:#e86c16;fill-opacity:1;stroke-width:0.0153752"
   d="m 244.95695,296.2867 c 0,-0.0152 0.97579,-1.44976 1.55816,-2.2907 3.87867,-5.60071 8.35656,-11.37074 12.43466,-16.02281 1.05367,-1.20197 1.1108,-1.26454 1.15555,-1.26557 0.0233,-5.4e-4 0.0423,0.002 0.0423,0.007 0,0.004 -0.24425,0.28611 -0.54279,0.62654 -5.12266,5.84141 -9.91671,12.06227 -14.24819,18.48872 -0.28625,0.4247 -0.31722,0.4651 -0.35657,0.4651 -0.0237,0 -0.0431,-0.004 -0.0431,-0.008 z"
   id="path53"
   transform="scale(0.64)" /><path
   style="fill:#e86c16;fill-opacity:1;stroke-width:0.00768758"
   d="m 325.33057,234.62221 c 0,-0.004 0.0931,-0.2571 0.14191,-0.38559 0.23353,-0.61496 0.54997,-1.30029 0.87143,-1.8873 0.50569,-0.92343 1.20063,-1.93123 1.95267,-2.83175 0.61103,-0.73167 1.33224,-1.46526 2.04635,-2.08151 1.46051,-1.26033 3.10395,-2.26723 4.88684,-2.99406 l 0.13983,-0.057 0.11002,4e-4 c 0.10862,3.9e-4 0.10963,5.5e-4 0.0793,0.0127 -0.0169,0.007 -0.11551,0.0459 -0.2191,0.0871 -0.4785,0.19006 -0.87087,0.3661 -1.35475,0.60782 -1.35266,0.67571 -2.55473,1.48763 -3.66908,2.4782 -1.91933,1.70615 -3.38381,3.64488 -4.37587,5.79293 -0.15887,0.344 -0.38188,0.88028 -0.48672,1.17044 l -0.0326,0.0903 h -0.0451 c -0.0248,0 -0.0451,-0.001 -0.0451,-0.003 z"
   id="path54"
   transform="scale(0.64)" /><path
   style="fill:#e86c16;fill-opacity:1;stroke-width:0.0108719"
   d="m 324.68949,239.37967 c 0.21351,-1.45328 0.50795,-2.67417 0.90128,-3.7372 0.70416,-1.90312 1.64819,-3.59455 2.85796,-5.12066 1.76273,-2.22366 4.04046,-4.00422 6.67393,-5.21717 0.23356,-0.10758 0.28203,-0.12622 0.32615,-0.12547 l 0.0518,8.9e-4 -0.038,0.0164 c -0.37699,0.16256 -1.07139,0.50011 -1.44052,0.70024 -2.61933,1.42007 -4.82664,3.44834 -6.4768,5.95147 -0.65826,0.99851 -1.2234,2.07761 -1.67808,3.20417 -0.49222,1.21959 -0.85795,2.52468 -1.07022,3.81906 -0.0539,0.32884 -0.10841,0.71138 -0.10841,0.76124 0,0.019 -0.006,0.027 -0.0201,0.027 -0.019,0 -0.0179,-0.0152 0.021,-0.27995 z"
   id="path55"
   transform="scale(0.64)" /><path
   style="fill:#e86c16;fill-opacity:1;stroke-width:0.0108719"
   d="m 324.34556,239.55906 c 0.056,-0.78179 0.12466,-1.37133 0.23506,-2.01945 0.15313,-0.89898 0.35889,-1.73444 0.6319,-2.56576 0.12148,-0.36993 0.11116,-0.3479 0.16291,-0.3479 0.0375,0 0.0428,0.003 0.0361,0.019 -0.065,0.15928 -0.28095,0.83061 -0.37339,1.16057 -0.32834,1.17205 -0.5414,2.42182 -0.62321,3.65567 l -0.0131,0.19841 h -0.0317 -0.0317 z"
   id="path56"
   transform="scale(0.64)" /><path
   style="fill:#e86c16;fill-opacity:1;stroke-width:0.0153752"
   d=""
   id="path57"
   transform="scale(0.64)" /><path
   style="fill:#e86c16;fill-opacity:1;stroke-width:0.0153752"
   d="m 326.16851,232.92368 c 0,-0.006 0.0564,-0.11835 0.12524,-0.25016 1.0291,-1.96917 2.4605,-3.74288 4.29512,-5.32225 1.48809,-1.28106 3.36257,-2.36346 5.30443,-3.06299 1.64638,-0.59309 3.30299,-0.93666 5.14299,-1.06664 0.47001,-0.0332 1.85182,-0.0381 2.29089,-0.008 2.30887,0.15774 4.24835,0.61327 6.32688,1.48601 0.60929,0.25584 1.15421,0.53031 1.17349,0.59109 0.0189,0.0595 -0.27043,-0.0307 -0.6123,-0.19092 -1.05331,-0.4937 -3.27395,-1.13157 -4.5977,-1.32068 -1.22885,-0.17554 -3.43498,-0.19592 -5.07327,-0.0468 -0.65126,0.0593 -1.07515,0.12576 -1.61754,0.25377 -3.3113,0.78151 -6.23275,2.30769 -8.60694,4.4963 -0.30547,0.2816 -0.93479,0.91987 -1.19022,1.20714 -0.83798,0.94247 -1.56604,1.94737 -2.17219,2.99816 l -0.13747,0.23831 -0.32571,0.004 c -0.17913,0.002 -0.3257,-5.8e-4 -0.3257,-0.006 z"
   id="path58"
   transform="scale(0.64)" /><path
   style="fill:#e86c16;fill-opacity:1;stroke-width:0.0153752"
   d=""
   id="path59"
   transform="scale(0.64)" /><path
   style="fill:#e86c16;fill-opacity:1;stroke-width:0.0153752"
   d="m 335.41135,224.3775 c 0.0185,-0.0185 0.53384,-0.20721 0.90476,-0.33133 0.33532,-0.11221 0.95755,-0.29941 1.14269,-0.34379 0.04,-0.01 0.043,-0.007 0.0384,0.0306 -0.005,0.0392 -0.0157,0.0439 -0.24323,0.106 -0.47365,0.12915 -1.01029,0.30059 -1.44162,0.46057 -0.18152,0.0673 -0.24917,0.0854 -0.31941,0.0854 -0.049,0 -0.0857,-0.003 -0.0816,-0.007 z"
   id="path60"
   transform="scale(0.64)" /><path
   style="fill:#3737c8;fill-opacity:1;stroke-width:0.00390625"
   d="m 335.31283,225.21325 c 0.002,-0.002 0.0919,-0.0418 0.22819,-0.10081 0.92361,-0.39961 1.89591,-0.73388 2.89453,-0.99512 0.33324,-0.0872 0.76015,-0.18729 0.96484,-0.22626 0.3979,-0.0757 0.94193,-0.13962 1.56152,-0.1833 l 0.0967,-0.007 v 0.009 c 0,0.007 -0.002,0.009 -0.0128,0.009 -0.0149,0 -0.24314,0.0256 -0.38174,0.0429 -1.27968,0.15917 -2.56425,0.46253 -3.78515,0.89387 -0.56096,0.19818 -0.93041,0.33974 -1.32553,0.50789 -0.0458,0.0195 -0.0464,0.0196 -0.0703,0.0157 -0.0388,-0.006 -0.0796,9.7e-4 -0.13641,0.0244 -0.0247,0.0102 -0.0383,0.0141 -0.0338,0.01 z"
   id="path61"
   transform="scale(0.64)" /><path
   style="fill:#5f5fd3;fill-opacity:1;stroke-width:1.41421"
   d="M 429.33292,606.52792 C 527.26097,538.32685 563.92805,409.97055 516.86546,300.11271 497.85249,255.7309 465.87698,217.4568 424.24254,189.2448 l -3.51401,-2.38113 5.65686,0.75248 c 14.08314,1.87336 36.88019,7.7817 50.35864,13.05152 28.66982,11.20934 52.59244,27.08449 74.79926,49.63709 23.77041,24.14054 40.21941,50.97782 50.75512,82.80927 7.93665,23.97892 10.58045,40.76055 10.57233,67.10841 -0.0135,43.85532 -11.83404,81.82537 -37.44078,120.26783 -11.43724,17.17028 -37.08225,42.90341 -54.67485,54.86267 -14.74385,10.02273 -39.38873,22.21703 -55.85342,27.63631 -9.49052,3.12376 -37.72009,9.36522 -42.35808,9.36522 -0.86728,0 2.18791,-2.62195 6.78931,-5.82655 z"
   id="path62"
   transform="scale(0.64)" /><path
   style="fill:#5f5fd3;fill-opacity:1;stroke-width:1.41421"
   d="m 426.38539,609.93558 c 0.77781,-0.74126 5.55079,-4.42001 10.6066,-8.17501 48.66742,-36.14577 82.6383,-89.87694 95.61667,-151.23526 4.9551,-23.42641 6.20054,-62.07371 2.76041,-85.65821 -6.45656,-44.2643 -21.2819,-80.63763 -47.26615,-115.96551 -10.15317,-13.80414 -32.98596,-37.22325 -46.43883,-47.63133 -18.30057,-14.1586 -17.61595,-13.39392 -11.03606,-12.32664 10.05695,1.63128 36.52456,8.84268 45.63618,12.4341 4.87664,1.92217 14.97752,6.71193 22.44641,10.64391 56.24224,29.60865 97.533,85.52248 110.32889,149.40173 3.50844,17.51475 3.48737,58.39234 -0.0393,76.22443 -8.8382,44.6891 -28.31093,80.74888 -61.33809,113.58645 -20.24166,20.12546 -44.21391,35.57837 -73.70205,47.50957 -13.7685,5.57087 -50.82357,14.28794 -47.57468,11.19177 z"
   id="path63"
   transform="scale(0.64)" /><path
   style="fill:#5f5fd3;fill-opacity:1;stroke-width:0.0220971"
   d="m 530.29772,343.25062 c -0.006,-0.0273 -0.12515,-0.53696 -0.26455,-1.13247 -2.14362,-9.15792 -4.85554,-18.33985 -8.03408,-27.20152 -0.1918,-0.53475 -0.35577,-0.98967 -0.36436,-1.01094 -0.0145,-0.0358 0.009,-0.0387 0.31333,-0.0387 h 0.32896 l 0.25061,0.70158 c 3.15762,8.83998 5.81623,17.81767 7.94571,26.83139 0.2478,1.04894 0.43127,1.84719 0.43127,1.87646 0,0.0159 -0.0991,0.0239 -0.29789,0.0239 -0.2909,0 -0.29815,-10e-4 -0.309,-0.0497 z"
   id="path64"
   transform="scale(0.64)" /><path
   style="fill:#5f5fd3;fill-opacity:1;stroke-width:0.0441942"
   d="m 521.47066,313.41403 c -3.36997,-9.1549 -6.79417,-17.11255 -10.98701,-25.53318 -1.98507,-3.98671 -3.82502,-7.47832 -5.67079,-10.76128 l -0.4224,-0.7513 0.33713,-0.013 c 0.18543,-0.007 0.35266,0.003 0.37162,0.0221 0.019,0.0193 0.37093,0.64169 0.78213,1.38305 5.87198,10.58644 10.962,21.6164 15.25333,33.05365 0.6401,1.70598 1.10788,2.9823 1.10788,3.02278 0,0.0166 -0.13616,0.0302 -0.30257,0.0302 h -0.30257 z"
   id="path65"
   transform="scale(0.64)" /><path
   style="fill:#5f5fd3;fill-opacity:1;stroke-width:0.0441942"
   d="m 504.32751,276.24673 c -0.0344,-0.0547 -0.30633,-0.52701 -0.6042,-1.04961 -6.08065,-10.66828 -13.14965,-21.14655 -20.86848,-30.93299 l -0.96088,-1.21827 0.34217,-0.0137 0.34216,-0.0137 0.14368,0.16478 c 0.17812,0.20427 1.93011,2.43656 2.82313,3.59708 6.77436,8.80356 13.29241,18.59572 18.75361,28.17378 0.34648,0.60767 0.66906,1.16949 0.71684,1.24849 l 0.0869,0.14363 h -0.35614 c -0.32131,0 -0.36226,-0.01 -0.41877,-0.0994 z"
   id="path66"
   transform="scale(0.64)" /><path
   style="fill:#5f5fd3;fill-opacity:1;stroke-width:0.0441942"
   d="m 481.46987,242.5271 c -3.42404,-4.31415 -8.47897,-10.12917 -12.76466,-14.68404 -3.16516,-3.36396 -7.47309,-7.67166 -10.89776,-10.89717 -2.92105,-2.75117 -6.43821,-5.89297 -9.53589,-8.51819 l -0.89593,-0.75928 h 0.49973 0.49972 l 0.72766,0.62681 c 9.13317,7.86735 17.88057,16.5221 25.74409,25.47141 2.49423,2.83863 4.92349,5.73522 7.56467,9.01995 0.1743,0.21676 0.15095,0.23717 -0.27128,0.23717 h -0.27616 z"
   id="path67"
   transform="scale(0.64)" /><path
   style="fill:#5f5fd3;fill-opacity:1;stroke-width:0.0441942"
   d="m 544.58222,243.47535 c -0.17042,-0.1633 -0.79687,-0.74629 -1.39212,-1.29553 -17.60253,-16.24218 -36.54299,-28.65456 -58.13695,-38.09928 -5.01877,-2.1951 -9.44824,-3.9414 -13.89906,-5.47964 -7.02843,-2.42908 -16.51485,-5.14427 -25.0581,-7.17209 -0.8872,-0.21058 -1.64789,-0.39293 -1.69043,-0.40521 -0.0678,-0.0196 -0.0773,-0.0844 -0.0773,-0.52759 0,-0.40316 0.0125,-0.50526 0.0618,-0.50526 0.0877,0 2.99774,0.64753 4.46815,0.99422 27.94634,6.58909 54.24878,18.75242 77.53867,35.85705 5.99256,4.40107 11.80783,9.16185 17.40146,14.24603 l 1.1159,1.01428 v 0.83636 c 0,0.46001 -0.005,0.83574 -0.0111,0.83497 -0.006,-7.8e-4 -0.15048,-0.13502 -0.32089,-0.29831 z"
   id="path68"
   transform="scale(0.64)" /><path
   style="fill:#5f5fd3;fill-opacity:1;stroke-width:0.0441942"
   d="m 447.17875,207.50813 c -0.38955,-0.34511 -2.96281,-2.45215 -4.41942,-3.6187 -7.33125,-5.87138 -14.99728,-11.32539 -22.98097,-16.34983 -0.77782,-0.48951 -1.63808,-1.02643 -1.91169,-1.19315 -0.27361,-0.16672 -0.49056,-0.31004 -0.48211,-0.31849 0.0189,-0.0189 2.06524,0.16266 3.85221,0.34174 7.05184,0.70669 13.96658,1.74847 20.85965,3.14272 1.0938,0.22124 2.04343,0.41169 2.11027,0.42321 l 0.12153,0.021 v 0.52829 c 0,0.48226 -0.007,0.52633 -0.0773,0.50577 -0.13916,-0.0405 -2.21252,-0.50517 -3.65706,-0.81956 -4.38205,-0.95371 -8.5146,-1.73032 -12.13131,-2.27979 -0.9689,-0.1472 -7.57513,-1.03833 -7.69747,-1.03833 -0.0969,0 0.0285,0.0903 1.59868,1.15104 7.31946,4.94468 12.3121,8.57874 18.29639,13.31762 2.30809,1.82776 6.95952,5.65337 7.64401,6.2869 0.0548,0.0507 -0.0133,0.0596 -0.44194,0.0581 l -0.50666,-0.002 z"
   id="path69"
   transform="scale(0.64)" /><path
   style="fill:#5f5fd3;fill-opacity:1;stroke-width:0.125"
   d="m 419.63851,611.96751 c 37.27679,-23.48243 67.30129,-55.85882 88.09787,-94.99876 0.47887,-0.90125 0.85477,-1.46875 0.97288,-1.46875 0.25666,0 0.23954,0.0393 -1.16996,2.6875 -17.29938,32.50204 -41.26847,60.60461 -70.48911,82.64501 -1.36823,1.03202 -4.39273,3.23772 -6.72112,4.90156 -5.53067,3.95214 -7.95407,5.91505 -7.95407,6.44263 0,0.27743 0.87894,0.26042 3.0625,-0.0593 9.34746,-1.36856 31.25481,-6.4036 39.46648,-9.07072 16.92733,-5.49794 43.78019,-18.97012 57.90069,-29.04901 14.80105,-10.56466 34.8814,-30.13033 47.33597,-46.1227 2.74976,-3.53085 5.20725,-7.03312 7.95975,-11.34375 L 578.75887,515.5 h 0.55807 c 0.30693,0 0.55806,0.0465 0.55806,0.10338 0,0.13641 -3.85094,5.84227 -5.49824,8.14662 -11.69859,16.36478 -25.46867,30.91339 -41.06737,43.38919 -26.09457,20.87038 -56.45759,35.26395 -89.06983,42.22351 -8.05484,1.71893 -18.47849,3.27764 -25.61456,3.8303 l -1.0625,0.0823 z"
   id="path70"
   transform="scale(0.64)" /><path
   style="fill:#5f5fd3;fill-opacity:1;stroke-width:0.125"
   d=""
   id="path71"
   transform="scale(0.64)" /><path
   style="fill:#5f5fd3;fill-opacity:1;stroke-width:0.0220971"
   d="m 512.25384,507.84848 c 0.0111,-0.0292 0.0544,-0.12116 0.0962,-0.2044 0.0418,-0.0832 0.27237,-0.56897 0.51237,-1.07941 4.12982,-8.7837 7.74824,-17.80016 10.7988,-26.90873 l 0.39779,-1.18772 h 0.22978 c 0.17274,0 0.22979,0.007 0.22979,0.0285 0,0.0157 -0.17979,0.56458 -0.39953,1.21984 -3.16842,9.44796 -6.71847,18.31898 -10.91888,27.28456 l -0.42186,0.90045 h -0.27231 -0.27231 z"
   id="path72"
   transform="scale(0.64)" /><path
   style="fill:#5f5fd3;fill-opacity:1;stroke-width:0.0441942"
   d="m 508.14721,516.12987 c -10e-4,-0.0198 0.36923,-0.75562 0.82368,-1.63518 0.75742,-1.46592 2.68146,-5.33743 3.08445,-6.20645 l 0.16907,-0.3646 h 0.2582 c 0.14201,0 0.25819,0.008 0.25819,0.0172 0,0.0879 -3.23889,6.63437 -3.73043,7.53996 -0.19297,0.35553 -0.20238,0.36559 -0.17563,0.18783 0.0272,-0.18053 0.0238,-0.18783 -0.088,-0.18783 -0.10914,0 -0.28914,0.19904 -0.54434,0.60191 -0.029,0.0457 -0.0538,0.0669 -0.0552,0.0471 z"
   id="path73"
   transform="scale(0.64)" /><path
   style="fill:#5f5fd3;fill-opacity:1;stroke-width:0.0441942"
   d="m 524.09871,478.41683 c 0,-0.0161 0.17756,-0.57792 0.39457,-1.24848 4.66813,-14.42402 8.09733,-29.60688 10.02002,-44.36376 l 0.12236,-0.93912 h 0.2337 c 0.12853,0 0.2337,0.008 0.2337,0.018 0,0.0482 -0.36994,2.73898 -0.50487,3.67225 -2.03194,14.05392 -5.39034,28.50713 -9.70165,41.75197 -0.19574,0.60133 -0.35589,1.10349 -0.35589,1.1159 0,0.0124 -0.0994,0.0226 -0.22097,0.0226 -0.12154,0 -0.22097,-0.0132 -0.22097,-0.0293 z"
   id="path74"
   transform="scale(0.64)" /><path
   style="fill:#5f5fd3;fill-opacity:1;stroke-width:0.0441942"
   d="m 534.66988,431.58925 c 0.0754,-0.54354 0.34446,-2.82027 0.49744,-4.20949 0.72129,-6.55039 1.18168,-13.09186 1.39344,-19.79899 0.0524,-1.65914 0.13167,-5.91876 0.13264,-7.12631 l 6.5e-4,-0.80655 h 0.26954 0.26954 l -0.0283,1.97769 c -0.14889,10.39278 -0.71519,18.96895 -1.88299,28.51629 -0.23562,1.92636 -0.18157,1.72358 -0.45943,1.72358 h -0.23083 z"
   id="path75"
   transform="scale(0.64)" /><path
   style="fill:#5f5fd3;fill-opacity:1;stroke-width:0.0441942"
   d="m 536.67664,397.38296 c -0.1764,-13.3285 -1.14973,-24.98523 -3.12467,-37.42141 -0.50442,-3.17633 -1.56301,-9.02371 -1.93854,-10.70797 l -0.0374,-0.16765 0.29313,0.013 0.29313,0.013 0.2752,1.39211 c 2.40822,12.18182 3.92393,24.66212 4.49781,37.03472 0.14649,3.15817 0.22408,5.938 0.27107,9.71167 l 0.0298,2.39753 h -0.26481 -0.26481 z"
   id="path76"
   transform="scale(0.64)" /><path
   style="fill:#5f5fd3;fill-opacity:1;stroke-width:0.03125"
   d="m 531.66406,349.07114 c -0.0559,-0.007 -0.10156,-0.0175 -0.10156,-0.0234 0,-0.0903 -1.19382,-5.57138 -1.23932,-5.68993 -0.0157,-0.041 0.0242,-0.0464 0.28853,-0.0386 l 0.30681,0.009 0.19617,0.875 c 0.33115,1.47702 1.04156,4.80329 1.04156,4.87678 0,0.016 -0.34187,0.01 -0.49219,-0.009 z"
   id="path77"
   transform="scale(0.64)" /><path
   style="fill:#5f5fd3;fill-opacity:1;stroke-width:0.03125"
   d="m 612.86455,396.64844 c -0.12935,-14.68226 -1.19203,-26.09977 -3.50703,-37.67969 -0.16321,-0.81641 -0.30434,-1.50898 -0.31361,-1.53906 -0.0155,-0.0503 0.0183,-0.0547 0.41935,-0.0547 0.42652,0 0.43659,0.002 0.45315,0.0703 0.0347,0.14389 0.30626,1.54265 0.50213,2.58594 2.05145,10.92708 3.24587,22.0014 3.58114,33.20312 0.046,1.53727 0.0932,4.04223 0.0937,4.97657 L 614.09375,399 h -0.60424 -0.60425 z"
   id="path78"
   transform="scale(0.64)" /><path
   style="fill:#5f5fd3;fill-opacity:1;stroke-width:0.0883883"
   d="m 609.04313,357.2436 c -0.0195,-0.0608 -0.2203,-0.94575 -0.44627,-1.96664 -2.71125,-12.24912 -7.6984,-27.61555 -12.9232,-39.81895 -4.36838,-10.20309 -9.85423,-20.63858 -15.43802,-29.36703 l -0.32512,-0.50823 0.59933,2.1e-4 0.59934,2.1e-4 1.21094,1.96643 c 12.78069,20.75449 21.83224,43.25191 26.94696,66.97606 0.28822,1.33688 0.5447,2.52017 0.56995,2.62955 0.0425,0.18384 0.0155,0.19888 -0.35628,0.19888 -0.24395,0 -0.41614,-0.0435 -0.43763,-0.11049 z"
   id="path79"
   transform="scale(0.64)" /><path
   style="fill:#5f5fd3;fill-opacity:1;stroke-width:0.0883883"
   d="m 577.77001,282.33448 c -8.78627,-13.16699 -18.47523,-24.68974 -30.76028,-36.58216 l -2.10289,-2.03567 0.0258,-0.76941 0.0258,-0.76941 1.81196,1.70014 c 3.82501,3.58894 9.27636,9.2006 12.95126,13.33212 7.28777,8.19329 14.0109,16.99618 19.82392,25.95632 1.75764,2.70922 1.64142,2.41634 0.95889,2.41634 h -0.56682 z"
   id="path80"
   transform="scale(0.64)" /><path
   style="fill:#5f5fd3;fill-opacity:1;stroke-width:0.0625"
   d="m 579.85431,515.59874 c -0.0305,-0.0794 -0.14326,-0.0987 -0.57631,-0.0987 -0.29613,0 -0.52904,-0.0215 -0.51758,-0.0477 0.0115,-0.0262 0.53902,-0.87702 1.17237,-1.89062 7.46729,-11.95053 13.72407,-24.18638 18.56789,-36.31166 2.89287,-7.24156 5.51279,-15.102 7.42645,-22.28125 l 0.43315,-1.625 0.44486,-0.0184 c 0.30725,-0.0127 0.44486,0.004 0.44486,0.0544 0,0.0902 -0.32313,1.31825 -0.85387,3.24522 -5.66071,20.55222 -14.57421,40.50475 -26.12927,58.48937 -0.26259,0.4087 -0.38599,0.55358 -0.41255,0.48437 z"
   id="path81"
   transform="scale(0.64)" /><path
   style="fill:#5f5fd3;fill-opacity:1;stroke-width:0.0625"
   d="m 606.40076,453.20312 c 0.0188,-0.0602 0.25855,-1.02343 0.53277,-2.14062 3.02145,-12.30944 4.87377,-24.79861 5.59424,-37.71875 0.17025,-3.05311 0.34488,-7.80044 0.34659,-9.42188 l 6.4e-4,-0.60937 h 0.59697 0.59697 l -0.0355,1.07812 c -0.13679,4.15437 -0.17246,5.08204 -0.25528,6.64063 -0.75302,14.16979 -2.83818,27.89451 -6.32161,41.60937 l -0.17065,0.67188 h -0.45966 c -0.40912,0 -0.4559,-0.012 -0.42547,-0.10938 z"
   id="path82"
   transform="scale(0.64)" /><path
   style="fill:#5f5fd3;fill-opacity:1;stroke-width:0.0625"
   d="M 612.875,401.15625 V 399 h 0.59375 0.59375 v 2.15625 2.15625 h -0.59375 -0.59375 z"
   id="path83"
   transform="scale(0.64)" /><path
   style="fill:#5f5fd3;fill-opacity:1;stroke-width:0.0110485"
   d=""
   id="path84"
   transform="scale(0.64)" /><path
   style="fill:#5f5fd3;fill-opacity:1;stroke-width:0.0110485"
   d="m 452.64778,606.36603 c 0,-0.0133 0.009,-0.0236 0.0249,-0.0271 0.10747,-0.0239 2.72917,-0.68118 3.26208,-0.81787 4.02804,-1.0332 6.90951,-1.84783 9.13162,-2.58163 3.63591,-1.20069 7.84257,-2.794 12.24731,-4.63878 0.24914,-0.10434 0.4596,-0.19245 0.46768,-0.1958 0.0106,-0.004 0.0137,0.002 0.011,0.0241 -0.004,0.0347 0.0851,-0.005 -0.91515,0.41121 -5.12202,2.13343 -9.91377,3.89895 -13.52894,4.98473 -2.47117,0.74219 -5.67328,1.60536 -9.47965,2.55534 -0.65628,0.16379 -1.19946,0.29994 -1.20705,0.30254 -0.008,0.003 -0.0138,-0.004 -0.0138,-0.0168 z"
   id="path85"
   transform="scale(0.64)" /><path
   style="fill:#5f5fd3;fill-opacity:1;stroke-width:0.0110485"
   d="m 452.65887,606.36414 c 2e-5,-0.0101 0.44062,-0.12488 1.44459,-0.37628 4.13662,-1.03584 7.10173,-1.84012 9.4879,-2.57355 3.6345,-1.11714 8.68724,-2.99752 13.71124,-5.10264 0.24915,-0.10439 0.45921,-0.19235 0.4668,-0.19547 0.008,-0.003 0.0138,0.002 0.0138,0.0119 0,0.0242 -0.0552,0.0505 -0.4779,0.22706 -5.4701,2.28516 -10.31945,4.07584 -14.09314,5.20407 -2.44501,0.73099 -5.26101,1.48945 -9.21594,2.48224 -0.7143,0.1793 -1.30744,0.32854 -1.31807,0.33162 -0.0115,0.003 -0.0193,-3.1e-4 -0.0193,-0.009 z"
   id="path86"
   transform="scale(0.64)" /><path
   style="fill:#5f5fd3;fill-opacity:1;stroke-width:0.03125"
   d=""
   id="path87"
   transform="scale(0.64)" /><path
   style="fill:#5f5fd3;fill-opacity:1;stroke-width:0.03125"
   d="m 428.2576,609.44873 0.008,-2.14632 0.57813,-0.40677 c 0.31797,-0.22373 1.07734,-0.75855 1.6875,-1.18849 9.79488,-6.90198 19.14458,-14.54763 27.84375,-22.76905 2.26471,-2.14034 5.89896,-5.73111 7.89229,-7.79788 1.50557,-1.56104 3.81699,-4.00976 3.86707,-4.0968 0.0213,-0.037 2.19689,-0.0434 14.63287,-0.0434 h 14.60788 l -0.008,8.44387 -0.008,8.44387 -1.04687,0.54205 c -2.31566,1.199 -6.4151,3.23396 -8.9375,4.43657 -9.8275,4.68547 -19.64937,8.67424 -26.25,10.66041 -7.67692,2.31004 -24.50269,6.21936 -34.10938,7.92501 -0.34375,0.061 -0.65673,0.11823 -0.69552,0.12712 l -0.0705,0.0162 z"
   id="path88"
   transform="scale(0.64)" /><path
   style="fill:#5f5fd3;fill-opacity:1;stroke-width:0.03125"
   d="m 428.25,609.45559 v -2.13936 l 0.36719,-0.26207 c 0.20195,-0.14414 0.72578,-0.51319 1.16406,-0.8201 10.58305,-7.41101 20.52489,-15.56437 29.7183,-24.37215 2.33405,-2.23614 4.3553,-4.24836 7.08107,-7.04941 0.64773,-0.66562 1.85038,-1.93555 2.75802,-2.91232 l 0.83323,-0.89669 14.60162,-0.002 14.60162,-0.002 -0.008,8.44451 -0.008,8.44452 -0.98437,0.51001 c -2.40848,1.24785 -7.20505,3.62291 -9.67188,4.78909 -9.62542,4.55039 -19.09085,8.38215 -25.42187,10.29122 -7.68266,2.31663 -24.17823,6.16308 -33.92804,7.91136 -0.52942,0.0949 -0.99423,0.17972 -1.0329,0.18842 l -0.0703,0.0158 z"
   id="path89"
   transform="scale(0.64)" /><path
   style="fill:#5f5fd3;fill-opacity:1;stroke-width:0.03125"
   d="m 428.25,609.45465 v -2.1403 l 0.52344,-0.37071 c 0.28789,-0.20389 1.02968,-0.72727 1.64843,-1.16306 9.78258,-6.89005 19.0916,-14.48945 27.73322,-22.63996 3.78781,-3.57254 8.1281,-7.93978 11.37616,-11.44678 l 0.64062,-0.6917 14.60157,-0.001 L 499.375,571 v 8.43678 8.43678 l -0.0703,0.0437 c -0.26004,0.16162 -5.95578,3.03429 -7.41407,3.73931 -2.00308,0.9684 -2.53093,1.22156 -3.5,1.67861 -4.37016,2.06113 -8.61221,3.93712 -12.5625,5.55558 -5.74785,2.35495 -10.24576,3.95678 -14.46875,5.15272 -8.29333,2.34867 -23.09631,5.74717 -32,7.34662 -0.53281,0.0957 -1.00039,0.18096 -1.03906,0.18943 l -0.0703,0.0154 z"
   id="path90"
   transform="scale(0.64)" /><path
   style="fill:#5f5fd3;fill-opacity:1;stroke-width:0.00390625"
   d="m 417.23253,613.37365 c 0.004,-0.003 0.10087,-0.0624 0.21474,-0.13229 1.95191,-1.19764 4.12001,-2.5721 5.99414,-3.79996 0.13213,-0.0866 0.25098,-0.16421 0.26412,-0.17255 l 0.0239,-0.0152 0.0586,10e-4 0.0586,10e-4 -0.0981,0.0644 c -1.25108,0.82146 -2.41125,1.56968 -3.65666,2.35825 -0.24108,0.15264 -0.62797,0.3965 -1.6875,1.06362 -0.46192,0.29084 -0.84058,0.52937 -0.84147,0.53006 -9e-4,6.9e-4 -8e-4,0.002 2.2e-4,0.003 0.002,0.002 0.82414,-0.0612 1.32757,-0.10135 1.43916,-0.11484 3.13029,-0.28204 4.84375,-0.47889 0.27426,-0.0315 0.70435,-0.0816 0.71387,-0.0832 0.008,-10e-4 0.009,-3e-4 0.009,0.027 v 0.0284 l -0.0146,0.002 c -0.0212,0.003 -0.50487,0.0582 -0.95215,0.10787 -1.95433,0.21695 -3.9157,0.40716 -5.89934,0.57209 -0.19386,0.0161 -0.35553,0.0293 -0.35927,0.0293 -0.006,0 -0.006,-6.1e-4 9.1e-4,-0.005 z"
   id="path91"
   transform="scale(0.64)" /><path
   style="fill:#5f5fd3;fill-opacity:1;stroke-width:0.00390625"
   d="m 422.38471,612.21719 c -0.009,-0.024 -0.006,-0.0804 0.006,-0.11563 0.0855,-0.25155 0.51865,-0.70796 1.31096,-1.38125 0.21969,-0.18668 0.74615,-0.61875 0.75394,-0.61875 0.001,0 0.002,0.0139 0.002,0.0308 v 0.0308 l -0.0283,0.0228 c -0.0462,0.0372 -0.3025,0.25102 -0.39941,0.33314 -0.61002,0.51695 -1.07232,0.95054 -1.34565,1.2621 -0.0469,0.0534 -0.13238,0.16016 -0.16546,0.20652 -0.0585,0.0821 -0.10211,0.16329 -0.11517,0.21474 -0.004,0.0153 -0.008,0.0289 -0.009,0.0301 -10e-4,10e-4 -0.005,-0.006 -0.009,-0.0154 z"
   id="path92"
   transform="scale(0.64)" /><path
   style="fill:#ffb077;fill-opacity:1;stroke-width:0.00390625"
   d="m 439.06641,598.38001 v -0.0384 l 0.0557,-0.0427 c 1.55507,-1.19437 3.51172,-2.74325 5.18108,-4.10134 l 0.15154,-0.12329 h 0.0506 c 0.0279,0 0.0499,6e-4 0.049,10e-4 -8.9e-4,7.4e-4 -0.0772,0.0628 -0.16959,0.13784 -1.65296,1.34325 -3.27944,2.63259 -4.9004,3.88462 -0.32073,0.24774 -0.40636,0.31356 -0.41308,0.31752 -0.004,0.002 -0.005,-0.006 -0.005,-0.0355 z"
   id="path93"
   transform="scale(0.64)" /></svg>
