<?xml version="1.0" encoding="UTF-8" standalone="no"?>
<svg
   viewBox="0 0 285 215"
   version="1.1"
   id="svg5"
   sodipodi:docname="fog.svg"
   width="285"
   height="215"
   inkscape:version="1.3.2 (091e20e, 2023-11-25, custom)"
   xmlns:inkscape="http://www.inkscape.org/namespaces/inkscape"
   xmlns:sodipodi="http://sodipodi.sourceforge.net/DTD/sodipodi-0.dtd"
   xmlns="http://www.w3.org/2000/svg"
   xmlns:svg="http://www.w3.org/2000/svg">
  <sodipodi:namedview
     id="namedview5"
     pagecolor="#ffffff"
     bordercolor="#000000"
     borderopacity="0.25"
     inkscape:showpageshadow="2"
     inkscape:pageopacity="0.0"
     inkscape:pagecheckerboard="0"
     inkscape:deskcolor="#d1d1d1"
     inkscape:zoom="1.626"
     inkscape:cx="250"
     inkscape:cy="200.79951"
     inkscape:window-width="1920"
     inkscape:window-height="1009"
     inkscape:window-x="-8"
     inkscape:window-y="-8"
     inkscape:window-maximized="1"
     inkscape:current-layer="图层_1" />
  <defs
     id="defs1">
    <style
       id="style1">.cls-1{fill:#dcdddd;}.cls-2{fill:#231815;}</style>
  </defs>
  <title
     id="title1" />
  <g
     data-name="图层 1"
     id="图层_1"
     transform="translate(-107.62608,-145.14145)">
    <path
       class="cls-1"
       d="m 325.57,314.23001 a 51.75,51.75 0 0 0 10.34,-102.46 73.71,73.71 0 0 0 -131.81,-19 62.24,62.24 0 1 0 -19.18,121.46"
       id="path1" />
    <path
       class="cls-2"
       d="m 325.57,321.77001 a 59.9,59.9 0 0 0 58.79,-52.34 c 3.7,-30 -17,-58.47 -46.46,-64.86 l 5.24,5.24 c -9.07,-28.39 -33.17,-50.81 -62.81,-56 a 82.4,82.4 0 0 0 -82.71,35.25 l 8.47,-3.45 c -31.4,-9.69 -66.35,3.77 -82.26,32.77 -15.16,27.65 -9.62,63.37 13.66,84.79 a 70.91,70.91 0 0 0 47.42,18.61 c 9.66,0.11 9.66,-14.89 0,-15 -24.5,-0.27 -46.36,-16.6 -52.84,-40.4 a 55.22,55.22 0 0 1 25.59,-61.82 c 13.58,-7.83 29.54,-9.09 44.43,-4.49 3.34,1 6.63,-0.74 8.47,-3.45 14.64,-21.54 41.42,-33.14 67.15,-28.1 a 67.05,67.05 0 0 1 50.95,45.29 7.54,7.54 0 0 0 5.24,5.24 c 22.53,4.89 38.5,25.75 35.61,49 -2.74,22.09 -22,38.41 -44,38.7 -9.64,0.13 -9.67,15.13 0,15 z"
       id="path2" />
    <path
       class="cls-2"
       d="m 211.08,321.77001 h 89.27 c 9.65,0 9.67,-15 0,-15 h -89.27 c -9.65,0 -9.67,15 0,15 z"
       id="path3" />
    <path
       class="cls-2"
       d="M 307.21,278.47001 H 195.82 c -9.65,0 -9.67,15 0,15 h 111.39 c 9.65,0 9.67,-15 0,-15 z"
       id="path4" />
    <path
       class="cls-2"
       d="M 329,335.06001 H 228.82 c -9.65,0 -9.67,15 0,15 H 329 c 9.65,0 9.67,-15 0,-15 z"
       id="path5" />
  </g>
</svg>
