<?xml version="1.0" encoding="UTF-8" standalone="no"?>
<svg
   viewBox="0 0 355 390"
   version="1.1"
   id="svg34"
   sodipodi:docname="partly-snowy.svg"
   width="355"
   height="390"
   inkscape:version="1.3.2 (091e20e, 2023-11-25, custom)"
   xmlns:inkscape="http://www.inkscape.org/namespaces/inkscape"
   xmlns:sodipodi="http://sodipodi.sourceforge.net/DTD/sodipodi-0.dtd"
   xmlns="http://www.w3.org/2000/svg"
   xmlns:svg="http://www.w3.org/2000/svg">
  <sodipodi:namedview
     id="namedview34"
     pagecolor="#ffffff"
     bordercolor="#000000"
     borderopacity="0.25"
     inkscape:showpageshadow="2"
     inkscape:pageopacity="0.0"
     inkscape:pagecheckerboard="0"
     inkscape:deskcolor="#d1d1d1"
     inkscape:zoom="1.626"
     inkscape:cx="250"
     inkscape:cy="200.79951"
     inkscape:window-width="1920"
     inkscape:window-height="1009"
     inkscape:window-x="-8"
     inkscape:window-y="-8"
     inkscape:window-maximized="1"
     inkscape:current-layer="svg34" />
  <defs
     id="defs1">
    <style
       id="style1">.cls-1{fill:#231815;}.cls-2{fill:#fff;}.cls-3{fill:#2ea7e0;}.cls-4{fill:#f8b62d;}</style>
  </defs>
  <title
     id="title1" />
  <g
     data-name="图层 1"
     id="图层_1"
     transform="translate(-72.570726,-54.120541)">
    <path
       class="cls-1"
       d="M 253.07,104.67 V 71 c 0,-9.65 -15,-9.67 -15,0 v 33.65 c 0,9.67 15,9.69 15,0.02 z M 245.57,71 Z"
       id="path1" />
    <path
       class="cls-1"
       d="m 176.66,125.19 c 4.83,8.36 17.79,0.81 13,-7.57 L 172.79,88.47 c -4.83,-8.36 -17.79,-0.81 -13,7.57 z m 6.48,-3.79 -16.83,-29.15 z"
       id="path2" />
    <path
       class="cls-1"
       d="m 87.06,237 h 33.65 c 9.65,0 9.67,-15 0,-15 H 87.06 c -9.66,0 -9.67,15 0,15 z m 33.65,-7.5 z"
       id="path3" />
    <path
       class="cls-1"
       d="M 314.47,125.19 331.3,96 c 4.84,-8.37 -8.12,-15.94 -13,-7.57 l -16.83,29.15 c -4.79,8.42 8.17,15.97 13,7.61 z M 324.82,92.26 308,121.4 Z"
       id="path4" />
    <path
       class="cls-2"
       d="m 336.08,375.24 h -17.36 v -7.34 l 3,-1.73 c 0.77,0.4 1.51,0.79 2.18,1.18 l 8.45,4.91 a 7.42,7.42 0 0 0 3.73,1.07 z"
       id="path5" />
    <path
       class="cls-2"
       d="m 250.05,372.26 8.44,-4.91 c 0.66,-0.38 1.41,-0.77 2.19,-1.18 l 3.19,1.85 v 7.22 h -17.56 v -1.91 a 7.38,7.38 0 0 0 3.74,-1.07 z"
       id="path6" />
    <path
       class="cls-2"
       d="m 303.72,373.7 v 1.54 h -24.85 v -7.34 l 4.83,-2.78 2.58,-1.49 4.92,-2.84 0.1,-0.06 4.92,2.84 2.48,1.43 q 2.5,1.45 5,2.9 z"
       id="path7" />
    <path
       class="cls-2"
       d="m 369.54,280 c 22.53,4.89 38.5,25.75 35.61,49 -2.75,22.09 -22,38.41 -44,38.7 -4.78,0.07 -7.2,3.78 -7.24,7.5 h -17.83 v -1.91 c 6.57,0 10.91,-9.92 3.84,-14 l -3.15,-1.82 4.85,-2.8 c 8.35,-4.82 0.81,-17.79 -7.57,-12.95 l -4.78,2.75 c 0,-1.19 0,-2.39 0,-3.59 0,-9.65 -15,-9.67 -15,0 v 9.77 c 0,0.76 0,1.62 -0.07,2.52 l -3,1.73 -7,-4.06 c -1.58,-0.91 -3.49,-2.28 -5.49,-3.5 v -3.13 c 0.76,-0.48 1.49,-0.95 2.18,-1.34 l 8.47,-4.87 c 8.37,-4.8 0.83,-17.76 -7.57,-12.95 l -3.08,1.77 v -5.32 a 7,7 0 0 0 -6.54,-7.19 7.12,7.12 0 0 0 -8.46,7.19 v 5.32 l -3.09,-1.77 c -8.39,-4.81 -15.95,8.15 -7.57,12.95 l 8.47,4.87 c 0.69,0.39 1.42,0.86 2.19,1.34 v 3.28 c -1.78,1.11 -3.46,2.29 -4.87,3.11 l -7.57,4.4 -3.1,-1.8 c 0,-0.87 -0.07,-1.73 -0.07,-2.51 v -9.77 c 0,-9.65 -15,-9.67 -15,0 0,1.2 0,2.4 0,3.6 l -4.77,-2.76 c -8.38,-4.84 -15.94,8.12 -7.57,12.95 l 4.84,2.8 -3.15,1.82 c -7.06,4.11 -2.74,14 3.84,14 v 1.91 h -18.51 c 0,-3.72 -2.44,-7.44 -7.24,-7.5 -24.5,-0.27 -46.36,-16.59 -52.84,-40.4 a 54.63,54.63 0 0 1 3,-36.6 55.42,55.42 0 0 1 8.47,-13.43 54.08,54.08 0 0 1 14.15,-11.78 c 13.58,-7.83 29.54,-9.09 44.43,-4.5 3.34,1 6.63,-0.73 8.47,-3.44 14.64,-21.54 41.42,-33.14 67.15,-28.1 a 67.43,67.43 0 0 1 13.82,4.3 c 0.87,0.38 1.73,0.78 2.57,1.19 0.84,0.41 1.94,1 2.89,1.48 a 67.93,67.93 0 0 1 8.76,5.72 66.91,66.91 0 0 1 22.91,32.59 7.52,7.52 0 0 0 5.22,5.23 z"
       id="path8" />
    <path
       class="cls-1"
       d="m 404.07,222 c 9.67,0 9.65,15 0,15 h -33.65 c -9.67,0 -9.65,-15 0,-15 z"
       id="path9" />
    <path
       class="cls-1"
       d="m 342.21,233.41 a 73.85,73.85 0 0 1 29.32,39.37 51.75,51.75 0 0 1 -10.34,102.46 H 354 c 0,-3.72 2.46,-7.43 7.24,-7.5 22,-0.29 41.21,-16.61 44,-38.7 2.89,-23.28 -13.08,-44.14 -35.61,-49 a 7.52,7.52 0 0 1 -5.24,-5.24 66.91,66.91 0 0 0 -22.91,-32.59 c 0.32,-2.92 0.59,-5.85 0.73,-8.8 z"
       id="path10" />
    <path
       class="cls-1"
       d="m 379.05,143.79 c 8.38,-4.84 15.93,8.13 7.57,13 l -29.14,16.82 c -8.39,4.84 -15.93,-8.12 -7.57,-12.95 z"
       id="path11" />
    <path
       class="cls-1"
       d="m 378.76,270.79 -5.24,-5.24 c 1.27,0.27 2.5,0.6 3.73,0.95 0.54,1.42 1.05,2.84 1.51,4.29 z"
       id="path12" />
    <path
       class="cls-1"
       d="m 342.32,230.1 c 0,-0.19 0,-0.38 0,-0.58 0,-0.2 0,-0.34 0,-0.51 0,-1.49 -0.09,-3 -0.17,-4.46 a 83.66,83.66 0 0 1 35.1,41.95 c -1.23,-0.35 -2.46,-0.68 -3.73,-0.95 l 5.24,5.24 c -0.46,-1.45 -1,-2.87 -1.51,-4.29 27.43,7.88 46.27,35.15 42.73,63.9 a 59.89,59.89 0 0 1 -58.79,52.34 c -4.88,0.07 -7.29,-3.71 -7.24,-7.5 h 7.24 a 51.75,51.75 0 0 0 10.34,-102.46 73.85,73.85 0 0 0 -29.32,-39.37 c 0.06,-1.1 0.1,-2.2 0.11,-3.31 z"
       id="path13" />
    <path
       class="cls-1"
       d="m 341.56,233 a 7.32,7.32 0 0 0 0.76,-2.88 c 0,1.11 -0.05,2.21 -0.11,3.31 z"
       id="path14" />
    <path
       class="cls-3"
       d="m 334.05,341.73 c 8.38,-4.84 15.92,8.13 7.57,12.95 l -4.85,2.8 3.15,1.82 c 7.07,4.11 2.73,14 -3.84,14 a 7.42,7.42 0 0 1 -3.73,-1.07 l -8.45,-4.91 c -0.67,-0.39 -1.41,-0.78 -2.18,-1.18 l -3,1.73 v 7.34 h -15 v -7.31 q -2.52,-1.44 -5,-2.9 l -2.48,-1.43 -4.92,-2.84 -0.1,0.06 -4.92,2.84 -2.58,1.49 -4.83,2.78 v 7.34 h -15 V 368 l -3.19,-1.85 c -0.78,0.41 -1.53,0.8 -2.19,1.18 l -8.44,4.91 a 7.38,7.38 0 0 1 -3.74,1.07 c -6.58,0 -10.9,-9.92 -3.84,-14 l 3.15,-1.82 -4.84,-2.8 c -8.37,-4.83 -0.81,-17.79 7.57,-12.95 l 4.77,2.76 c 0,-1.2 0,-2.4 0,-3.6 0,-9.67 15,-9.65 15,0 v 9.77 c 0,0.78 0,1.64 0.07,2.51 l 3.1,1.8 7.56,-4.36 c 1.41,-0.82 3.09,-2 4.87,-3.11 v -3.28 c -0.77,-0.48 -1.5,-0.95 -2.19,-1.34 L 273,338 c -8.38,-4.8 -0.82,-17.76 7.57,-12.95 l 3.09,1.77 v -5.32 a 7.12,7.12 0 0 1 8.46,-7.19 7,7 0 0 1 6.54,7.19 v 5.32 l 3.08,-1.77 c 8.4,-4.81 15.94,8.15 7.57,12.95 l -8.47,4.87 c -0.69,0.39 -1.42,0.86 -2.18,1.34 v 3.13 c 2,1.22 3.91,2.59 5.49,3.5 l 7,4.06 3,-1.73 c 0,-0.9 0.07,-1.76 0.07,-2.52 v -9.77 c 0,-9.67 15,-9.65 15,0 0,1.2 0,2.4 0,3.59 z"
       id="path15" />
    <path
       class="cls-3"
       d="m 341.42,395.46 c 8.37,4.83 0.8,17.79 -7.57,13 l -4.58,-2.65 c 0,1.2 0,2.4 0,3.6 0,9.67 -15,9.65 -15,0 v -9.77 c 0,-0.78 0,-1.64 -0.07,-2.51 l -3.1,-1.8 -7.36,4.25 c -1.47,0.85 -3.22,2.09 -5.06,3.23 V 406 c 0.76,0.48 1.5,0.95 2.18,1.34 l 8.47,4.87 c 8.38,4.8 0.82,17.76 -7.57,12.95 l -3.08,-1.77 V 429 c 0,9.67 -15,9.65 -15,0 v -5.55 l -3.09,1.77 c -8.39,4.81 -15.94,-8.15 -7.57,-12.95 l 8.47,-4.87 c 0.69,-0.39 1.42,-0.86 2.19,-1.34 v -3.36 c -1.94,-1.2 -3.77,-2.5 -5.3,-3.39 l -7,-4.05 -3.19,1.84 c 0,0.9 -0.08,1.75 -0.08,2.52 v 9.77 c 0,9.67 -15,9.65 -15,0 0,-1.2 0,-2.4 0,-3.6 l -4.57,2.65 c -8.39,4.84 -15.93,-8.13 -7.58,-13 l 4.65,-2.68 -3.14,-1.76 c -7.07,-4.11 -2.73,-14 3.84,-14 a 7.45,7.45 0 0 1 3.74,1.07 l 8.44,4.91 c 0.67,0.39 1.42,0.78 2.18,1.18 l 3.2,-1.85 v -7 h 15 v 7 l 4.83,2.69 2.68,1.54 4.82,2.79 0.1,0.06 4.82,-2.79 2.58,-1.49 4.92,-2.84 0.1,-0.06 v -7 h 15 v 7.12 l 3,1.73 c 0.78,-0.41 1.53,-0.8 2.18,-1.18 l 8.45,-4.91 a 7.35,7.35 0 0 1 3.74,-1.07 c 6.57,0 10.89,9.92 3.83,14 l -3.15,1.82 z"
       id="path16" />
    <path
       class="cls-1"
       d="m 341.56,233 c -1.63,3.23 -5.6,4.39 -8.93,3.48 -1,-0.52 -1.91,-1 -2.89,-1.48 a 7,7 0 0 1 -2.41,-5.46 7.48,7.48 0 0 1 0.84,-3.5 73.57,73.57 0 0 1 13.39,6.96 z"
       id="path17" />
    <path
       class="cls-1"
       d="m 328.17,226 c 3.1,-5.84 13.76,-4.84 14.15,3 0,0.17 0,0.34 0,0.51 0,0.17 0,0.39 0,0.58 a 7.32,7.32 0 0 1 -0.76,2.88 73.57,73.57 0 0 0 -13.39,-6.97 z"
       id="path18" />
    <path
       class="cls-1"
       d="m 332.63,236.46 c 3.33,0.91 7.3,-0.25 8.93,-3.48 l 0.65,0.43 c -0.14,2.95 -0.41,5.88 -0.82,8.77 a 67.93,67.93 0 0 0 -8.76,-5.72 z"
       id="path19" />
    <path
       class="cls-1"
       d="m 327.2,225.64 a 81.11,81.11 0 0 0 -0.89,-8.29 78.41,78.41 0 0 1 15.84,7.2 c 0.08,1.48 0.15,3 0.17,4.46 -0.39,-7.83 -11.05,-8.83 -14.15,-3 z"
       id="path20" />
    <path
       class="cls-1"
       d="m 328.17,226 a 7.48,7.48 0 0 0 -0.84,3.5 c 0,-1.3 -0.06,-2.59 -0.13,-3.88 z"
       id="path21" />
    <path
       class="cls-1"
       d="m 327.33,229.52 a 7,7 0 0 0 2.41,5.46 c -0.84,-0.41 -1.7,-0.81 -2.57,-1.19 0.09,-1.41 0.15,-2.79 0.16,-4.27 z"
       id="path22" />
    <path
       class="cls-1"
       d="m 301.11,220.88 a 73.53,73.53 0 0 1 26.09,4.76 c 0.07,1.29 0.12,2.58 0.13,3.88 0.01,1.3 -0.07,2.86 -0.16,4.27 a 67.43,67.43 0 0 0 -13.82,-4.3 c -25.73,-5 -52.51,6.56 -67.15,28.1 -1.84,2.71 -5.13,4.47 -8.47,3.44 -14.89,-4.59 -30.85,-3.33 -44.43,4.5 a 54.08,54.08 0 0 0 -14.15,11.78 74.24,74.24 0 0 1 -4.29,-6.54 62.19,62.19 0 0 1 58,-18.76 62.94,62.94 0 0 1 6.87,1.79 73.63,73.63 0 0 1 61.38,-32.92 z"
       id="path23" />
    <path
       class="cls-1"
       d="m 236.74,245.25 a 82.28,82.28 0 0 1 79.26,-30.49 77.68,77.68 0 0 1 10.36,2.59 81.11,81.11 0 0 1 0.89,8.29 73.75,73.75 0 0 0 -87.48,28.16 62.94,62.94 0 0 0 -6.87,-1.79 l 0.4,-2 8.47,-3.45 c -1.7,-0.5 -3.36,-0.93 -5.03,-1.31 z"
       id="path24" />
    <path
       class="cls-4"
       d="m 175.63,187.13 c 17.54,-28.95 52.48,-44.6 85.76,-37.86 a 82.65,82.65 0 0 1 64.92,68.08 77.68,77.68 0 0 0 -10.31,-2.59 82.28,82.28 0 0 0 -79.21,30.49 71.07,71.07 0 0 0 -65.5,18.5 83,83 0 0 1 4.34,-76.62 z"
       id="path25" />
    <path
       class="cls-1"
       d="m 241.72,246.57 -8.47,3.43 c 1.11,-1.64 2.28,-3.23 3.49,-4.77 1.67,0.4 3.33,0.83 4.98,1.34 z"
       id="path26" />
    <path
       class="cls-1"
       d="m 171.24,263.75 a 71.07,71.07 0 0 1 65.5,-18.5 c -1.21,1.54 -2.38,3.13 -3.49,4.77 l -0.4,2 a 62.19,62.19 0 0 0 -58,18.76 78.9,78.9 0 0 1 -3.61,-7.03 z"
       id="path27" />
    <path
       class="cls-1"
       d="m 158.31,313 a 62.23,62.23 0 0 0 62.23,62.23 h 7.24 c 0,3.78 -2.38,7.56 -7.24,7.5 a 70.88,70.88 0 0 1 -47.42,-18.61 c -23.28,-21.42 -28.82,-57.14 -13.66,-84.79 0.5,-0.92 1,-1.82 1.57,-2.7 0.53,0.95 1.08,1.91 1.65,2.85 0.91,1.51 1.87,3 2.86,4.41 A 61.89,61.89 0 0 0 158.31,313 Z"
       id="path28" />
    <path
       class="cls-1"
       d="m 174.86,270.77 a 74.24,74.24 0 0 0 4.29,6.54 55.42,55.42 0 0 0 -8.47,13.43 c -1.81,-2.19 -3.52,-4.48 -5.14,-6.84 a 61.51,61.51 0 0 1 9.32,-13.13 z"
       id="path29" />
    <path
       class="cls-1"
       d="M 171.24,263.75 A 68.18,68.18 0 0 0 161,276.64 c -19.27,-34.5 -15,-78.17 10,-108.76 25.37,-31.05 69.58,-43.24 107.27,-29.42 a 97.94,97.94 0 0 1 63.86,86.09 78.41,78.41 0 0 0 -15.84,-7.2 82.65,82.65 0 0 0 -64.92,-68.08 c -33.28,-6.74 -68.22,8.91 -85.76,37.86 a 83,83 0 0 0 -4.37,76.62 z"
       id="path30" />
    <path
       class="cls-1"
       d="m 161,276.64 a 68.18,68.18 0 0 1 10.21,-12.89 78.9,78.9 0 0 0 3.62,7 61.51,61.51 0 0 0 -9.32,13.13 c -1,-1.44 -1.95,-2.9 -2.86,-4.41 -0.54,-0.92 -1.09,-1.88 -1.65,-2.83 z"
       id="path31" />
    <path
       class="cls-1"
       d="m 227.78,375.24 h -7.24 a 62.23,62.23 0 0 1 -55,-91.34 c 1.62,2.36 3.33,4.65 5.14,6.84 a 54.63,54.63 0 0 0 -3,36.6 c 6.48,23.81 28.34,40.13 52.84,40.4 4.82,0.06 7.23,3.78 7.26,7.5 z"
       id="path32" />
    <path
       class="cls-1"
       d="m 141.22,160.62 c 8.37,4.83 0.8,17.79 -7.57,12.95 L 104.5,156.75 c -8.36,-4.84 -0.8,-17.79 7.57,-13 z"
       id="path33" />
    <path
       class="cls-1"
       d="m 133.65,285.48 c 8.38,-4.84 15.93,8.12 7.57,12.95 l -29.15,16.82 c -8.38,4.85 -15.92,-8.12 -7.57,-12.95 z"
       id="path34" />
  </g>
</svg>
