<?xml version="1.0" encoding="UTF-8" standalone="no"?>
<svg
   viewBox="0 0 290 220"
   version="1.1"
   id="svg8"
   sodipodi:docname="rain.svg"
   width="290"
   height="220"
   inkscape:version="1.3.2 (091e20e, 2023-11-25, custom)"
   xmlns:inkscape="http://www.inkscape.org/namespaces/inkscape"
   xmlns:sodipodi="http://sodipodi.sourceforge.net/DTD/sodipodi-0.dtd"
   xmlns="http://www.w3.org/2000/svg"
   xmlns:svg="http://www.w3.org/2000/svg">
  <sodipodi:namedview
     id="namedview8"
     pagecolor="#ffffff"
     bordercolor="#000000"
     borderopacity="0.25"
     inkscape:showpageshadow="2"
     inkscape:pageopacity="0.0"
     inkscape:pagecheckerboard="0"
     inkscape:deskcolor="#d1d1d1"
     inkscape:zoom="1.626"
     inkscape:cx="250"
     inkscape:cy="200.79951"
     inkscape:window-width="1920"
     inkscape:window-height="1009"
     inkscape:window-x="-8"
     inkscape:window-y="-8"
     inkscape:window-maximized="1"
     inkscape:current-layer="svg8" />
  <defs
     id="defs1">
    <style
       id="style1">.cls-1{fill:#fff;}.cls-2{fill:#231815;}.cls-3{fill:#2ea7e0;}</style>
  </defs>
  <title
     id="title1" />
  <g
     data-name="图层 1"
     id="图层_1"
     transform="translate(-104.55105,-138.99138)">
    <path
       class="cls-1"
       d="M 325.57,311.22 A 51.75,51.75 0 0 0 335.91,208.76 73.71,73.71 0 0 0 204.1,189.76 62.24,62.24 0 1 0 184.92,311.2"
       id="path1" />
    <path
       class="cls-2"
       d="m 325.57,318.72 a 59.9,59.9 0 0 0 58.79,-52.34 c 3.7,-30 -17,-58.47 -46.46,-64.86 l 5.24,5.24 c -9.07,-28.39 -33.17,-50.81 -62.81,-56 A 82.4,82.4 0 0 0 197.62,186 l 8.47,-3.45 c -31.4,-9.69 -66.35,3.77 -82.26,32.77 -15.16,27.65 -9.62,63.37 13.66,84.79 a 70.91,70.91 0 0 0 47.42,18.61 c 9.66,0.11 9.66,-14.89 0,-15 -24.5,-0.27 -46.36,-16.6 -52.84,-40.4 a 55.22,55.22 0 0 1 25.59,-61.82 c 13.58,-7.83 29.54,-9.09 44.43,-4.49 3.34,1 6.63,-0.74 8.47,-3.45 14.64,-21.54 41.42,-33.14 67.15,-28.1 a 67.05,67.05 0 0 1 50.95,45.29 7.54,7.54 0 0 0 5.24,5.24 c 22.53,4.89 38.5,25.75 35.61,49 -2.74,22.09 -22,38.41 -44,38.7 -9.64,0.13 -9.67,15.13 0,15 z"
       id="path2" />
    <line
       class="cls-3"
       x1="212.97"
       x2="205.60001"
       y1="300.26001"
       y2="281.06"
       id="line2" />
    <path
       class="cls-3"
       d="m 220.2,298.27 -7.37,-19.2 c -1.45,-3.78 -5,-6.39 -9.23,-5.24 -3.61,1 -6.7,5.42 -5.24,9.23 l 7.37,19.2 c 1.45,3.78 5,6.39 9.23,5.24 3.61,-1 6.7,-5.42 5.24,-9.23 z"
       id="path3" />
    <line
       class="cls-3"
       x1="229.44"
       x2="222.06"
       y1="343.14001"
       y2="323.94"
       id="line3" />
    <path
       class="cls-3"
       d="m 236.67,341.15 -7.37,-19.2 c -1.45,-3.78 -5,-6.39 -9.23,-5.24 -3.61,1 -6.7,5.42 -5.24,9.23 l 7.37,19.2 c 1.45,3.78 5,6.39 9.23,5.24 3.61,-1 6.7,-5.42 5.24,-9.23 z"
       id="path4" />
    <line
       class="cls-3"
       x1="250.92999"
       x2="243.56"
       y1="300.26001"
       y2="281.06"
       id="line4" />
    <path
       class="cls-3"
       d="m 258.16,298.27 -7.37,-19.2 c -1.45,-3.78 -5,-6.39 -9.23,-5.24 -3.61,1 -6.7,5.42 -5.24,9.23 l 7.37,19.2 c 1.45,3.78 5,6.39 9.23,5.24 3.61,-1 6.7,-5.42 5.24,-9.23 z"
       id="path5" />
    <line
       class="cls-3"
       x1="267.39999"
       x2="260.01999"
       y1="343.14001"
       y2="323.94"
       id="line5" />
    <path
       class="cls-3"
       d="m 274.63,341.15 -7.37,-19.2 c -1.45,-3.78 -5,-6.39 -9.23,-5.24 -3.61,1 -6.7,5.42 -5.24,9.23 l 7.37,19.2 c 1.45,3.78 5,6.39 9.23,5.24 3.61,-1 6.7,-5.42 5.24,-9.23 z"
       id="path6" />
    <line
       class="cls-3"
       x1="288.89001"
       x2="281.51999"
       y1="300.26001"
       y2="281.06"
       id="line6" />
    <path
       class="cls-3"
       d="m 296.12,298.27 -7.37,-19.2 c -1.45,-3.78 -5,-6.39 -9.23,-5.24 -3.61,1 -6.7,5.42 -5.24,9.23 l 7.37,19.2 c 1.45,3.78 5,6.39 9.23,5.24 3.61,-1 6.7,-5.42 5.24,-9.23 z"
       id="path7" />
    <line
       class="cls-3"
       x1="305.35999"
       x2="297.98999"
       y1="343.14001"
       y2="323.94"
       id="line7" />
    <path
       class="cls-3"
       d="m 312.59,341.15 -7.37,-19.2 c -1.45,-3.78 -5,-6.39 -9.23,-5.24 -3.61,1 -6.7,5.42 -5.24,9.23 l 7.37,19.2 c 1.45,3.78 5,6.39 9.23,5.24 3.61,-1 6.7,-5.42 5.24,-9.23 z"
       id="path8" />
  </g>
</svg>
